<?xml version="1.0" encoding="UTF-8"?>
<!DOCTYPE svg PUBLIC "-//W3C//DTD SVG 1.1//EN" "http://www.w3.org/Graphics/SVG/1.1/DTD/svg11.dtd">
<!-- Creator: CorelDRAW 2017 -->
<svg xmlns="http://www.w3.org/2000/svg" xml:space="preserve" width="5in" height="3in" version="1.1" style="shape-rendering:geometricPrecision; text-rendering:geometricPrecision; image-rendering:optimizeQuality; fill-rule:evenodd; clip-rule:evenodd"
viewBox="0 0 5000 3000"
 xmlns:xlink="http://www.w3.org/1999/xlink">
 <defs>
  <style type="text/css">
   <![CDATA[
    .str0 {stroke:black;stroke-width:3}
    .fil0 {fill:none}
   ]]>
  </style>
 </defs>
 <g id="Layer_x0020_1">
  <metadata id="CorelCorpID_0Corel-Layer"/>
  <g id="_1985092587824">
   <g>
    <circle class="fil0 str0" cx="2791" cy="550" r="44"/>
    <circle class="fil0 str0" cx="2791" cy="550" r="13"/>
   </g>
   <g>
    <circle class="fil0 str0" cx="3250" cy="550" r="44"/>
    <circle class="fil0 str0" cx="3250" cy="550" r="13"/>
   </g>
   <g>
    <circle class="fil0 str0" cx="2950" cy="2449" r="44"/>
    <circle class="fil0 str0" cx="2950" cy="2449" r="13"/>
   </g>
   <path class="fil0 str0" d="M2902 1523c0,-9 2,-16 -5,-23 -4,-3 -3,-3 -10,-3l-41 0c-14,0 -28,-3 -28,13l0 41c0,12 -1,13 -7,19l-162 162c-9,9 -22,17 -22,32 -1,71 0,144 0,216l0 407c0,11 3,16 -4,22 -10,8 -21,29 -30,16 -5,-7 -8,-9 -13,-14 -15,-15 -46,-13 -60,0 -13,12 -18,28 -29,12 -6,-10 -20,-20 -32,-22 -17,-3 -32,4 -41,12l-13 14c-9,8 -13,-3 -16,-6 -2,-3 -11,-12 -14,-13 -25,-14 -49,-5 -65,14 -3,3 -3,6 -6,7 -10,5 -17,-16 -30,-22 -17,-7 -25,-9 -43,-2 -9,4 -10,6 -15,12 -16,16 -18,38 -6,59 4,6 19,16 20,21 5,16 -20,11 -29,11l-270 0c-12,0 -129,2 -134,-1 -8,-5 -1,-13 1,-19 1,-4 4,-17 5,-22 3,-16 0,-30 -3,-45 -2,-12 -3,-11 -8,-19 -10,-16 -9,-19 -24,-31 -12,-10 -19,-15 -35,-19 -23,-6 -45,-8 -68,1 -7,3 -11,6 -18,9 -7,3 -11,6 -15,12 -18,20 -14,10 -31,51 -2,6 -2,39 -1,46 2,9 18,33 3,37 -7,2 -362,0 -378,0 -30,0 -31,6 -31,-24l0 -1948c0,-28 -5,-43 12,-43 144,-1 289,0 433,0 8,0 18,-2 21,6 2,5 -17,40 -10,67 5,21 13,40 27,54 5,6 8,9 14,13 16,10 19,12 38,17 15,4 34,3 49,-1 10,-3 11,-2 20,-7 17,-10 17,-10 31,-24 7,-7 7,-7 11,-16 23,-43 16,12 74,-9 14,-5 21,-25 30,-23 7,1 9,16 30,24 14,6 32,4 44,-3 11,-7 19,-27 29,-20 7,5 7,16 30,24 6,2 17,3 25,2 5,-1 16,-6 19,-8 5,-4 9,-8 13,-14 10,-17 20,7 29,14 2,1 4,3 7,4l0 -5c-13,-8 -21,-22 -21,-38 0,-24 20,-44 44,-44 24,0 44,20 44,44 0,16 -9,30 -21,38l0 5c17,-9 19,-25 28,-23 8,1 11,18 27,24 16,6 28,6 43,0 7,-3 6,-2 10,-7 9,-9 13,-17 18,-17 11,0 15,32 58,28 14,-1 24,-10 32,-20 3,-4 3,-7 9,-8 7,-1 9,6 18,15 11,11 10,8 10,23 -1,29 2,198 -1,206 -2,7 -86,86 -86,86 -4,1 -29,1 -35,1 -14,0 -17,3 -17,17 0,23 -1,46 0,69 0,6 3,10 7,11 5,2 43,1 50,1 7,0 9,1 13,-3 7,-8 0,-37 3,-47 2,-8 58,-59 68,-70 11,-12 23,-22 35,-34 9,-9 9,-9 9,-25l0 -207c0,-19 -1,-15 9,-25 3,-3 6,-6 8,-9 11,-16 14,-4 27,9 12,12 9,5 9,24l0 241c0,69 1,138 0,207 0,10 -9,15 -14,21l-155 155c-24,24 -16,18 -51,18 -15,0 -18,2 -18,17 0,11 0,23 0,34 0,17 -4,39 6,46 4,3 44,1 50,1 9,0 8,1 12,-4 5,-5 4,-4 4,-12 0,-6 -1,-30 1,-35 3,-7 28,-29 34,-35l17 -17c9,-9 17,-18 26,-26 3,-3 6,-5 9,-8l103 -104c6,-6 11,-12 17,-18 8,-8 6,-15 6,-28l0 -448c0,-17 -2,-17 7,-26 3,-3 6,-6 9,-9 3,-4 3,-7 9,-8 6,-1 14,10 18,15 9,9 10,6 10,22 -1,11 0,23 0,34l0 654c0,16 2,18 -7,27 -23,23 -46,46 -69,69l-190 190c-21,21 -16,20 -49,20 -33,0 -23,2 -24,80 0,15 2,19 17,18 66,-1 54,10 56,-48 0,-7 2,-8 6,-11l266 -266c37,-37 40,-30 40,-63l0 -688c0,-26 -4,-24 12,-40l8 -9c9,-11 19,10 28,17 9,7 30,11 42,7 14,-5 13,-5 22,-13 14,-14 18,-33 10,-52 -5,-11 -8,-13 -15,-19 -2,-2 -7,-6 -6,-11 0,-4 4,-7 9,-8 12,-1 97,-1 100,1 14,8 -4,18 -5,20 -12,12 -21,33 -13,51 5,13 6,12 14,20 5,5 12,10 23,12 13,2 32,-1 41,-10 3,-3 6,-6 8,-9 3,-3 3,-7 8,-9 9,-2 15,17 28,22 12,5 15,6 29,5 35,-1 36,-42 53,-22 3,4 5,6 8,9 7,7 9,9 21,13 11,3 33,0 42,-7 9,-8 19,-28 28,-16l8 9c3,3 5,6 9,8 15,9 41,10 55,-1 12,-10 18,-27 28,-17 9,9 22,20 21,30 -2,14 3,57 -4,66 -7,10 -41,41 -51,52 -23,23 -45,45 -68,68 -23,23 -46,46 -69,69 -35,35 -34,23 -33,71 0,16 -3,16 -11,23 -23,23 -46,46 -69,69 -25,26 -19,12 -30,8 -3,-1 -13,0 -17,0 -22,0 -46,-1 -68,0 -6,9 -5,4 -5,18 0,8 0,16 0,24 0,9 -4,27 6,30 3,1 7,1 11,1 8,0 16,0 24,0 12,0 11,0 17,6l34 36c4,4 8,8 12,12 14,14 11,10 11,35 0,9 2,41 -2,45 -4,5 -10,1 -15,9 -3,5 -1,61 -1,69 0,19 -4,35 10,38 9,2 8,5 8,15l0 118c0,11 0,11 -9,14 -5,2 -9,6 -9,14 0,108 -11,99 32,99 12,0 44,3 50,-4 3,-4 2,-45 2,-52 0,-8 2,-47 -2,-52 -5,-6 -4,-3 -11,-6 -8,-4 -5,-20 -5,-30 0,-35 -2,-71 0,-106 1,-13 17,-7 18,-18 2,-12 0,-56 0,-71 0,-11 3,-25 -5,-31 -10,-9 -14,3 -13,-21 0,-86 8,-67 -34,-109 -3,-3 -16,-13 -13,-20 2,-4 6,-5 10,-9l27 -27c12,-12 23,-23 35,-35l54 -54c16,-16 -1,-46 11,-61 5,-6 12,-12 18,-17 6,-6 11,-12 17,-18 9,-8 18,-20 26,-27l98 -97c3,-3 6,-6 9,-9 3,-3 5,-6 8,-9l36 -35c8,-8 9,-11 9,-26 0,-14 -2,-61 0,-71 1,-6 13,-14 17,-19 3,-4 4,-8 10,-8 5,0 6,4 9,8 3,4 16,15 17,18l0 390c0,33 2,29 -20,50 -3,3 -6,5 -13,5 -6,0 -13,1 -16,-2 -2,-2 -6,-8 -9,-10 -5,-3 -77,-1 -87,-1 -2,3 -5,5 -5,9 -1,11 0,31 0,43 0,11 -1,19 8,20 6,1 21,0 28,0 15,0 14,-2 22,7 13,15 28,28 42,42 17,17 14,11 14,43 0,7 2,36 -2,41 -3,4 -5,3 -9,4 -9,4 -7,14 -7,23 0,15 -2,78 1,84 9,11 17,-1 17,20 0,19 2,123 -1,128 -5,10 -17,0 -17,21 1,109 -15,97 44,97 15,0 38,4 39,-11 1,-11 1,-92 -1,-96 -5,-8 -12,-5 -15,-10 -3,-5 -2,-62 -2,-70 0,-94 -4,-61 18,-79 0,-31 1,-63 0,-94 0,-8 -4,-11 -10,-13 -8,-2 -8,-5 -8,-15 0,-15 0,-31 0,-46 0,-19 3,-29 -8,-40 -8,-8 -28,-26 -35,-35 -4,-6 -1,-12 4,-13 8,-2 12,1 21,-3 7,-3 29,-28 36,-34 8,-8 17,-13 17,-29l0 -419c0,-14 13,-18 19,-27 4,-6 9,-7 14,-1 14,15 22,24 46,24 10,0 12,-2 19,-5 8,-3 8,-4 13,-9 2,-2 4,-4 6,-6 12,-17 15,-2 30,12 13,11 39,11 55,2 6,-3 18,-21 25,-20 12,2 7,28 7,39l0 325c0,13 -1,30 7,39 9,11 54,52 58,59 4,7 1,13 -7,14 -35,1 -39,-4 -74,17 -10,6 -18,14 -25,22 -3,3 -6,10 -9,15 -10,18 -12,35 -12,57 0,10 6,29 11,37 8,13 9,16 20,27 17,17 38,30 62,30 7,0 17,0 24,0 25,-2 45,-24 45,3 -1,279 0,558 0,837 0,70 5,70 -23,61 -25,-8 -52,-9 -77,2 -3,1 -14,7 -15,8 -4,3 -2,3 -7,6 -5,3 -16,13 -18,17 -6,9 -12,21 -15,31 -2,5 -4,11 -5,17 -4,29 5,51 18,74 4,7 17,19 23,23 5,4 24,14 31,16 35,9 56,-4 57,10 0,7 -6,10 -10,14l-53 52c-2,3 -2,4 -4,8 -3,5 -10,7 -15,1 -4,-6 -9,-20 -21,-26 -60,-31 -67,42 -84,16 -4,-6 -12,-14 -18,-17 -13,-6 -25,-9 -38,-3 -12,5 -19,9 -26,20 -13,19 -16,-8 -38,-18 -28,-12 -45,-1 -63,19 -5,5 -10,7 -15,1 -10,-15 -22,-25 -44,-25 -40,0 -42,46 -58,22 -8,-12 -18,-11 -18,-28l0 -140c0,-14 -3,-35 5,-42 5,-4 8,-7 12,-11 4,-4 7,-7 11,-11 31,-31 62,-62 93,-93 8,-8 41,-43 48,-45 11,-2 37,4 44,-3 7,-6 5,-8 5,-19 0,-76 10,-65 -52,-65 -18,0 -30,-6 -30,17 0,16 3,30 -6,39l-163 163c-12,12 -13,10 -13,34l0 163c0,35 4,17 -16,40 -7,8 -12,12 -19,2 -9,-14 -24,-23 -42,-23 -20,0 -17,-2 -30,-15 -30,-30 -58,-59 -88,-88 -11,-11 -8,-17 -8,-36l0 -132c0,-22 -1,-45 0,-67 1,-17 18,-4 18,-26l0 -65c-5,-5 -7,-6 -18,-6 -75,1 -64,-11 -64,49 0,7 -2,26 2,32 2,3 3,4 6,5 9,2 9,2 9,14l0 203c0,12 -3,32 3,42 4,7 82,83 90,91 51,51 24,26 32,58 3,12 10,19 18,27 3,3 10,8 9,13 0,7 -7,8 -14,8 -30,0 -60,0 -90,0 -16,0 -63,7 -52,-13 2,-4 8,-9 11,-12 8,-8 15,-18 15,-30 0,-13 -3,-25 -11,-34 -3,-3 -8,-9 -12,-11 -18,-10 -36,-10 -52,1 -9,6 -17,22 -24,21 -6,0 -16,-18 -24,-22 -27,-14 -44,-8 -64,12 -3,3 -7,10 -12,10 -7,0 -9,-6 -12,-11 -2,-3 -9,-9 -16,-13l0 5c13,8 22,22 22,38 0,24 -20,44 -44,44 -24,0 -44,-20 -44,-44 0,-16 9,-31 23,-38l0 -6c-18,9 -25,37 -37,18 -2,-3 -3,-4 -5,-6 -14,-14 -12,-8 -12,-35l0 -424c0,-20 -2,-181 2,-186 4,-6 129,-130 141,-141 3,-3 8,-10 15,-8 7,2 6,11 6,19 0,26 -2,129 0,140 3,11 35,40 45,49 8,8 16,16 24,24 7,7 20,16 20,26 1,16 -5,32 15,31 15,0 31,0 46,0 6,-2 8,-13 19,-6 8,5 6,8 21,5l0 -10 -13 -1 0 -48 13 0 0 -10c-4,0 -12,-1 -16,1 -4,1 -5,5 -10,6 -7,1 -17,-9 -12,-16 3,-5 92,-92 95,-95 33,-33 80,-77 110,-111 7,-8 16,-5 16,7 1,21 0,43 0,63 0,19 9,23 24,38l127 127c15,15 13,15 13,35 0,8 0,7 4,11 4,4 3,4 11,4 9,0 44,1 48,0 4,-3 9,-13 18,-5 7,7 8,6 21,5l0 -11 -12 0 0 -48 12 0 0 -10c-27,-4 -21,15 -36,2 -4,-4 -5,-3 -12,-3 -29,0 -23,-2 -41,-20 -21,-21 -41,-40 -61,-61l-46 -46c-5,-4 -10,-10 -15,-15 -9,-9 -8,-6 -8,-22 0,-92 -3,-53 18,-73 0,-22 0,-45 0,-67 0,-11 5,-37 -9,-40 -7,-1 -40,0 -48,0 -9,0 -20,-2 -25,7 -5,10 4,51 -4,61 -10,12 -22,22 -33,33 -11,11 -22,22 -33,33l-164 164c-22,22 -21,26 -36,11 -11,-11 -22,-22 -33,-33 -10,-10 -8,-8 -8,-25 0,-24 -1,-117 0,-131 1,-10 9,-7 18,-14l0 -82z"/>
   <path class="fil0 str0" d="M3053 1249c20,0 18,-2 18,9 0,23 1,62 0,81l-18 0 0 169c3,0 12,0 15,0 5,1 3,4 3,9 0,24 1,60 0,81l-60 0c-1,-8 -1,-86 0,-91l17 0 0 -169 -17 0 0 -90 17 0c2,-20 0,-49 0,-69 0,-19 3,-17 -7,-27l-51 -51c-3,-3 -6,-6 -9,-9 -6,-5 -31,0 -48,-3l0 -50 76 0 0 12c13,0 14,2 21,-5l102 -102c2,-4 1,-18 1,-24 0,-28 -3,-24 12,-39l153 -153c17,-17 34,-34 51,-51 6,-6 9,-6 9,-17l0 -71c-18,-5 -31,-22 -31,-42 0,-24 20,-44 44,-44 24,0 44,20 44,44 0,20 -13,37 -31,42l0 76c0,13 -1,12 -8,19l-216 217c-5,9 3,41 -3,52 -3,6 -93,94 -107,109 -16,16 -11,13 -40,13 0,8 -1,8 4,12l51 51c6,6 9,8 9,20l0 89z"/>
   <path class="fil0 str0" d="M3463 592c0,53 1,430 -1,436 -2,6 -30,32 -36,38 -9,9 -8,11 -26,11 -12,0 -24,0 -36,0 0,8 -1,8 4,12l22 22c10,10 19,19 29,29 6,6 9,8 9,21 0,19 -1,75 0,88l18 0 0 90 -18 0 0 169 18 0 0 90 -60 0c0,-13 -1,-84 1,-90l17 0 0 -169 -17 0c-1,-7 -1,-86 0,-91l17 0c0,-23 0,-46 0,-70 0,-21 2,-19 -7,-28l-51 -51c-17,-17 -9,-10 -57,-11l0 -50 76 0 0 12c11,0 23,0 34,0 10,0 9,-2 20,-14 25,-25 20,-14 20,-49l0 -398c-18,-5 -31,-22 -31,-42 0,-24 20,-44 44,-44 24,0 44,20 44,44 0,20 -13,37 -31,42z"/>
   <path class="fil0 str0" d="M2703 592l0 701c0,43 7,30 -26,63l-264 264c-4,4 -20,19 -21,23 -2,10 1,32 0,44l-50 0 0 -74c53,-1 36,8 65,-21l256 -256c15,-15 17,-13 17,-26 0,-14 0,-28 0,-42l0 -676c-18,-6 -31,-22 -31,-42 0,-24 20,-44 44,-44 24,0 44,20 44,44 0,20 -14,37 -32,42z"/>
   <path class="fil0 str0" d="M2970 1977l60 0 0 62 -18 0c-1,83 -1,166 0,249 0,8 3,8 12,18l78 78c6,6 18,19 26,26 6,-4 14,-6 21,-6 24,0 44,20 44,44 0,24 -20,44 -44,44 -24,0 -44,-20 -44,-44 0,-8 2,-15 6,-21l-27 -27c-11,-11 -22,-22 -33,-33 -9,-9 -63,-60 -64,-67 -1,-9 0,-242 0,-261l-17 0 0 -62z"/>
   <path class="fil0 str0" d="M3263 2217l0 190c18,5 32,22 32,42 0,24 -20,44 -44,44 -24,0 -44,-20 -44,-44 0,-20 13,-37 31,-42l0 -174c0,-39 -4,-26 39,-69l108 -108c4,-4 35,-32 35,-37l0 -41 60 0 0 62 -42 0c-4,0 -20,17 -23,21l-143 143c-4,4 -10,7 -10,14z"/>
   <path class="fil0 str0" d="M2663 2407c18,5 31,22 31,42 0,24 -20,44 -44,44 -24,0 -44,-20 -44,-44 0,-20 13,-37 31,-42l0 -610c0,-39 -5,-33 15,-53l171 -171c9,-8 6,-7 6,-27 0,-12 0,-24 0,-35l61 0c0,19 1,75 0,91l-18 0c0,54 0,108 0,162 0,11 -1,10 5,15l31 30c7,7 13,13 20,20 6,6 15,14 20,19 3,-29 -9,-13 26,-48l185 -186c13,-13 24,-25 37,-38 11,-11 9,-6 9,-28 0,-13 0,-25 0,-38l60 0c0,21 1,73 0,91l-18 0 0 82c0,16 -2,14 6,22l41 41c5,5 10,8 15,14l90 90c3,3 3,5 8,5 8,1 19,-1 28,0l0 48 -48 0c-2,-39 8,-22 -31,-61l-91 -92c-11,-11 -43,-36 -43,-49l0 -101c-19,0 -14,-2 -28,13l-37 37c-3,3 -4,5 -7,8 -55,56 -115,116 -171,171 -8,7 -6,6 -6,25l12 0 0 49 -48 0c0,-8 0,-16 0,-24 0,-10 0,-7 -9,-16 -4,-4 -8,-7 -12,-11l-62 -62c-6,-6 -7,-6 -7,-17l0 -172c-20,0 -14,-2 -35,20 -7,7 -14,14 -21,21l-119 119c-3,3 -10,8 -10,12l0 635z"/>
   <path class="fil0 str0" d="M3708 2546l-2516 0c-23,0 -39,-16 -39,-39l0 -2016c0,-24 20,-38 40,-38l2502 0c6,0 18,14 25,21 34,34 27,18 27,68 0,133 1,269 0,401 0,11 2,10 8,16l83 82c3,3 10,7 10,13l0 1291c0,4 -86,89 -94,96 -5,5 -6,4 -6,15 0,10 1,54 -1,62 -4,14 -18,27 -37,27zm-2522 -2098c-20,4 -36,15 -39,36 -2,17 -1,199 -1,225l0 1728c0,23 -2,53 0,75 1,13 5,19 12,26 6,7 14,12 24,13 16,2 200,1 226,1l2254 0c33,0 72,8 87,-27 6,-16 1,-53 3,-72 1,-6 11,-14 17,-20l75 -75c10,-10 8,-7 8,-30 0,-145 1,-1273 0,-1278 -1,-4 -14,-16 -18,-19 -13,-13 -25,-25 -38,-38 -13,-13 -25,-25 -37,-37 -9,-9 -7,-8 -7,-31l0 -414c0,-8 1,-10 -3,-15l-48 -47c-5,-3 -102,-1 -112,-1l-2330 0c-18,0 -60,-2 -74,1z"/>
   <path class="fil0 str0" d="M2578 592l0 451c0,30 5,21 -15,41 -10,10 -19,19 -29,29l-142 142c-9,9 -5,7 -22,7 -10,0 -20,0 -29,0l0 74 51 0c0,-10 0,-20 0,-29 0,-18 -2,-14 8,-23 10,-10 20,-20 30,-30 20,-20 40,-40 60,-60 20,-20 40,-40 60,-60l45 -45c7,-7 9,-8 9,-22 -1,-139 0,-281 0,-420 0,-17 -1,-37 0,-54 19,-5 32,-22 32,-42 0,-24 -20,-44 -44,-44 -24,0 -44,20 -44,44 0,20 13,36 31,42z"/>
   <path class="fil0 str0" d="M2478 592c0,36 1,221 0,226 -1,4 -50,52 -57,58 -10,10 -19,19 -29,29 -9,9 -5,7 -22,7 -10,0 -19,0 -29,0 -1,7 -1,70 0,74l49 0c1,-6 1,-24 1,-31 0,-18 -1,-14 9,-23 32,-32 65,-66 97,-97 9,-9 7,-9 7,-25l0 -219c18,-5 32,-22 32,-42 0,-24 -20,-44 -44,-44 -24,0 -44,20 -44,44 0,20 13,36 31,42z"/>
   <path class="fil0 str0" d="M2016 1683l0 4 -50 0 0 -74 51 0 0 24 194 0 0 -24 51 0 0 74 -50 0 0 -25 -194 0 0 21zm-62 -76c0,20 0,39 0,59 0,32 -4,33 25,33 7,0 38,2 43,-2 3,-2 5,-5 5,-9 1,-13 0,-16 14,-15l145 0c24,0 5,17 19,25 3,2 9,1 14,1 65,0 54,9 54,-64 0,-35 4,-34 -24,-34 -10,0 -20,0 -29,0 -39,0 -2,25 -34,25l-145 0c-23,0 -5,-20 -19,-25 -4,-1 -38,-1 -44,-1 -15,0 -14,-2 -23,6z"/>
   <path class="fil0 str0" d="M2016 1337l-51 0 0 -74 50 0 0 24 194 0 0 -25 50 0 0 74 -50 0 0 -25 -194 0 0 25zm-62 1c0,4 4,8 6,10 4,3 37,1 44,1 9,0 18,2 23,-7 3,-6 -3,-19 11,-19l151 0c9,0 10,5 10,13 0,10 7,13 9,13l54 0c3,0 7,-4 8,-6 3,-5 1,-63 1,-73 0,-4 2,-19 -10,-19l-54 0c-3,0 -8,4 -9,7 -2,5 1,9 -2,13 -4,7 -16,5 -26,5l-121 0c-10,0 -22,2 -24,-7 -1,-6 1,-8 -2,-12 -2,-3 -5,-6 -9,-6l-51 0c-7,0 -11,5 -11,11l0 76z"/>
   <path class="fil0 str0" d="M2016 987l-50 0 0 -74 50 0 0 24 194 0 0 -25 50 0 0 74 -51 0 0 -25 -194 0 0 25zm0 12c5,0 5,-2 8,-5 8,-8 -3,-21 14,-21l151 0c15,0 6,14 12,22 2,2 4,4 7,4l54 0c3,0 4,-1 7,-4 2,-3 3,-3 3,-8l0 -76c0,-5 -1,-5 -3,-8 -2,-2 -3,-4 -6,-4l-54 0c-3,0 -5,3 -7,4 -7,7 3,21 -13,21l-151 0c-15,0 -8,-13 -12,-19 -6,-8 -10,-6 -23,-6 -10,0 -20,0 -31,0 -5,0 -18,-1 -18,11l0 76c0,6 5,11 11,11l51 0z"/>
   <path class="fil0 str0" d="M2028 1555c4,-6 2,-31 2,-40 0,-18 2,-13 -5,-26 -3,-6 -10,-11 -17,-14 -5,-2 -14,-1 -19,-1 -21,0 -21,-3 -21,18 0,10 -2,75 2,79 4,4 36,2 38,2 1,0 13,-7 13,-7 2,-2 6,-9 7,-11z"/>
   <path class="fil0 str0" d="M2028 1205c3,-5 3,-54 0,-59 -2,-4 -5,-10 -8,-12 -2,-2 -10,-7 -12,-8 -5,-2 -13,-1 -19,-1 -20,0 -21,-3 -21,18 0,10 -2,75 2,79 4,4 36,2 38,2 1,0 12,-7 13,-7 3,-3 5,-8 8,-11z"/>
   <path class="fil0 str0" d="M1968 783l0 83c0,8 6,8 14,8 6,0 19,1 24,0 3,-1 13,-6 15,-8 3,-3 8,-12 8,-17l0 -47c0,-5 -6,-15 -9,-17 -12,-12 -27,-9 -46,-9 -5,0 -7,4 -7,8z"/>
   <path class="fil0 str0" d="M2830 1249l60 0 0 86 -1 4 -60 0 0 -4 0 -86zm61 101c4,0 10,-4 10,-8l0 -94c0,-5 -6,-11 -11,-11l-62 0c-4,0 -10,6 -10,11l0 93c0,6 5,9 11,9l62 0z"/>
   <path class="fil0 str0" d="M3205 1249l60 0 0 90 -60 0 0 -90zm72 -1c0,-5 -6,-10 -8,-11l-56 0c-10,0 -9,-2 -15,4 -5,5 -4,4 -4,14l0 75c0,7 -1,13 2,17 4,5 6,4 14,4 12,0 25,0 37,0 6,0 29,3 29,-8l0 -94z"/>
   <path class="fil0 str0" d="M1911 799c0,-13 13,-10 24,-10 6,0 12,1 14,-4 2,-6 -1,-10 -6,-10 -52,0 -46,-4 -46,20l0 54c0,5 0,9 0,14 0,15 2,12 30,12 9,0 21,3 22,-6 2,-19 -38,4 -38,-18l0 -12c0,-20 29,-2 29,-17 0,-4 -4,-7 -6,-7 -3,-1 -7,0 -11,0 -12,0 -12,-4 -12,-14z"/>
   <path class="fil0 str0" d="M1911 1500c0,-14 12,-11 25,-11 21,0 13,-14 7,-14l-37 0c-5,0 -8,2 -8,7l0 86c0,4 4,6 8,6l37 0c3,0 6,-3 6,-6 0,-19 -38,5 -38,-18l0 -12c0,-20 29,-1 29,-17 0,-17 -29,6 -29,-20z"/>
   <path class="fil0 str0" d="M1911 1149c0,-22 38,0 38,-17 0,-4 -3,-7 -5,-7 -9,0 -17,0 -26,0 -9,0 -21,-3 -21,6l0 85c0,6 3,8 8,8l37 0c5,0 8,-6 6,-11 -4,-9 -35,5 -37,-11 -6,-49 31,-8 29,-36 -14,-9 -29,6 -29,-17z"/>
   <path class="fil0 str0" d="M1642 2458c-5,-35 20,-63 49,-67 35,-5 63,20 66,50 5,35 -20,62 -50,66 -35,5 -62,-20 -66,-49zm123 -2c5,-37 -25,-67 -58,-71 -38,-5 -68,25 -72,57 -5,39 24,69 58,73 35,4 67,-20 72,-59z"/>
   <path class="fil0 str0" d="M3694 1148c0,-30 26,-55 54,-55 35,0 59,25 59,56 0,31 -24,57 -55,57 -34,0 -58,-24 -58,-58zm-7 0c0,37 28,65 66,65 32,0 61,-28 61,-65 0,-33 -28,-62 -66,-62 -32,0 -61,30 -61,62z"/>
   <path class="fil0 str0" d="M1694 548c0,-31 26,-55 57,-55 31,0 56,25 56,55 0,34 -26,58 -55,58 -34,0 -58,-24 -58,-58zm-7 0c0,37 28,65 66,65 32,0 61,-28 61,-65 0,-34 -30,-62 -63,-62 -34,0 -64,28 -64,62z"/>
   <path class="fil0 str0" d="M3807 2256c-11,78 -123,61 -114,-13 4,-29 29,-54 64,-50 29,4 55,30 50,63zm-121 2c4,32 35,61 73,55 31,-5 61,-35 55,-73 -5,-32 -35,-60 -72,-55 -32,4 -61,35 -56,73z"/>
   <path class="fil0 str0" d="M1836 775c-8,-1 -11,1 -11,9l0 54c0,9 -3,31 3,35 5,3 28,1 36,1 7,0 13,0 13,-6 1,-6 -4,-8 -10,-8 -11,0 -26,4 -28,-8 -1,-9 1,-70 0,-73l-3 -4z"/>
   <path class="fil0 str0" d="M1871 1574c4,0 6,-3 6,-6 0,-11 -15,-7 -27,-7 -14,0 -11,-10 -11,-23 0,-11 0,-23 0,-34 0,-6 0,-11 0,-17 0,-16 -14,-13 -14,-3l0 84c0,5 3,8 8,8l37 0z"/>
   <path class="fil0 str0" d="M1829 1224c12,0 25,0 37,0 7,0 12,0 11,-8 -1,-16 -38,7 -38,-17 0,-10 2,-68 -1,-72 -4,-4 -11,-3 -12,3l0 90 3 3z"/>
   <path class="fil0 str0" d="M1824 963c0,6 -1,25 1,29 4,8 11,7 23,7l0 -12 -12 0 0 -24 -11 0z"/>
   <path class="fil0 str0" d="M1824 1313c0,30 -5,36 24,36l0 -12 -12 0 0 -24 -11 0z"/>
   <path class="fil0 str0" d="M1835 1613l12 0 0 -12c-27,0 -24,-1 -24,36l11 0 0 -24z"/>
   <path class="fil0 str0" d="M1835 1263l12 0 0 -12c-11,0 -20,-1 -23,8 -1,4 -1,23 -1,28l11 0 0 -24z"/>
   <path class="fil0 str0" d="M1836 913l12 0 0 -11c-26,0 -24,1 -24,36l11 0 0 -24z"/>
   <path class="fil0 str0" d="M1824 1663c-1,5 -1,25 1,29 3,8 13,7 23,7l0 -12 -12 0 -1 -24 -10 0z"/>
   <path class="fil0 str0" d="M1886 1613c0,7 -1,18 1,24 9,0 10,2 10,-6 0,-24 3,-32 -23,-30l0 11 12 0z"/>
   <path class="fil0 str0" d="M3287 910l25 0 0 -11c-34,-3 -37,1 -36,24l10 0 0 -12z"/>
   <path class="fil0 str0" d="M2912 910l25 0 0 -11c-33,-2 -37,-1 -36,24l10 0 0 -12z"/>
   <path class="fil0 str0" d="M1874 1349c29,2 23,-10 23,-36l-11 0 0 24 -12 0 0 12z"/>
   <path class="fil0 str0" d="M2902 948c0,21 -3,26 36,23l0 -11 -25 0 0 -12 -11 0z"/>
   <path class="fil0 str0" d="M1874 999c27,2 23,-8 23,-36l-11 0 0 24 -12 0 0 12z"/>
   <path class="fil0 str0" d="M3339 909l25 0 0 12 11 0c1,-28 -11,-24 -36,-24l0 11z"/>
   <path class="fil0 str0" d="M2964 909l25 0 0 12 11 0c2,-28 -11,-24 -36,-24l0 11z"/>
   <path class="fil0 str0" d="M1874 1699c11,1 20,1 22,-8 1,-4 1,-22 0,-28l-11 0 0 24 -12 0 0 11z"/>
   <path class="fil0 str0" d="M1874 912l12 0 0 24 11 -1c0,-32 4,-36 -23,-35l0 11z"/>
   <path class="fil0 str0" d="M1874 1262l12 0 0 24 11 0c1,-16 4,-36 -13,-36l-6 0 -4 0 0 11z"/>
   <path class="fil0 str0" d="M3277 948c0,10 -2,20 7,23 4,1 24,1 29,0l0 -11 -25 0 0 -12 -10 0z"/>
   <path class="fil0 str0" d="M2964 971c34,0 36,3 36,-23l-11 0 0 12 -25 0 0 11z"/>
   <path class="fil0 str0" d="M3339 971c33,0 36,3 36,-23l-11 0 0 12 -25 0 0 11z"/>
   <path class="fil0 str0" d="M3502 1853l12 0 0 12 11 0c0,-23 -1,-23 -23,-23l0 11z"/>
   <path class="fil0 str0" d="M3502 1913c14,0 25,3 22,-23l-10 1 0 12 -12 0 0 11z"/>
   <path class="fil0 str0" d="M3052 1913c13,0 25,2 22,-23l-11 0 0 12 -12 0 1 11z"/>
   <path class="fil0 str0" d="M3052 1853l12 0 0 12 11 0c0,-23 -1,-23 -23,-23l0 11z"/>
   <g>
    <circle class="fil0 str0" cx="3550" cy="2449" r="44"/>
    <circle class="fil0 str0" cx="3550" cy="2449" r="13"/>
   </g>
   <g>
    <circle class="fil0 str0" cx="3450" cy="2449" r="44"/>
    <circle class="fil0 str0" cx="3450" cy="2449" r="13"/>
   </g>
   <circle class="fil0 str0" cx="3350" cy="2449" r="44"/>
   <circle class="fil0 str0" cx="3350" cy="2449" r="13"/>
   <circle class="fil0 str0" cx="3250" cy="2449" r="13"/>
   <circle class="fil0 str0" cx="3150" cy="2449" r="13"/>
   <circle class="fil0 str0" cx="2850" cy="2449" r="44"/>
   <circle class="fil0 str0" cx="2850" cy="2449" r="13"/>
   <circle class="fil0 str0" cx="2750" cy="2449" r="13"/>
   <circle class="fil0 str0" cx="2650" cy="2449" r="13"/>
   <g>
    <circle class="fil0 str0" cx="2550" cy="2449" r="44"/>
    <circle class="fil0 str0" cx="2550" cy="2449" r="13"/>
   </g>
   <g>
    <circle class="fil0 str0" cx="2450" cy="2449" r="44"/>
    <circle class="fil0 str0" cx="2450" cy="2449" r="13"/>
   </g>
   <g>
    <circle class="fil0 str0" cx="2350" cy="2449" r="44"/>
    <circle class="fil0 str0" cx="2350" cy="2449" r="13"/>
   </g>
   <g>
    <circle class="fil0 str0" cx="2250" cy="2449" r="44"/>
    <circle class="fil0 str0" cx="2250" cy="2449" r="13"/>
   </g>
   <g>
    <circle class="fil0 str0" cx="3650" cy="550" r="44"/>
    <circle class="fil0 str0" cx="3650" cy="550" r="13"/>
   </g>
   <circle class="fil0 str0" cx="3550" cy="550" r="44"/>
   <circle class="fil0 str0" cx="3550" cy="550" r="13"/>
   <g>
    <circle class="fil0 str0" cx="3150" cy="550" r="44"/>
    <circle class="fil0 str0" cx="3150" cy="550" r="13"/>
   </g>
   <g>
    <circle class="fil0 str0" cx="3050" cy="550" r="44"/>
    <circle class="fil0 str0" cx="3050" cy="550" r="13"/>
   </g>
   <g>
    <circle class="fil0 str0" cx="2950" cy="550" r="44"/>
    <circle class="fil0 str0" cx="2950" cy="550" r="13"/>
   </g>
   <circle class="fil0 str0" cx="3450" cy="550" r="13"/>
   <circle class="fil0 str0" cx="3350" cy="550" r="13"/>
   <g>
    <circle class="fil0 str0" cx="2391" cy="550" r="44"/>
    <circle class="fil0 str0" cx="2391" cy="550" r="13"/>
   </g>
   <circle class="fil0 str0" cx="2291" cy="550" r="44"/>
   <circle class="fil0 str0" cx="2291" cy="550" r="13"/>
   <g>
    <circle class="fil0 str0" cx="2091" cy="550" r="44"/>
    <circle class="fil0 str0" cx="2091" cy="550" r="13"/>
   </g>
   <g>
    <circle class="fil0 str0" cx="1991" cy="550" r="44"/>
    <circle class="fil0 str0" cx="1991" cy="550" r="13"/>
   </g>
   <g>
    <circle class="fil0 str0" cx="1891" cy="550" r="44"/>
    <circle class="fil0 str0" cx="1891" cy="550" r="13"/>
   </g>
   <circle class="fil0 str0" cx="2191" cy="550" r="13"/>
   <circle class="fil0 str0" cx="2491" cy="550" r="13"/>
   <circle class="fil0 str0" cx="2591" cy="550" r="13"/>
   <circle class="fil0 str0" cx="2691" cy="550" r="13"/>
   <path class="fil0 str0" d="M2015 1544c2,-4 1,-19 1,-25 0,-11 1,-8 -3,-16 -2,-4 -6,-7 -9,-9 -3,-1 -8,-1 -11,-1 -12,0 -12,-2 -12,11 0,6 -1,47 1,49 2,2 20,1 21,1 0,0 7,-4 7,-4 1,-1 3,-6 4,-7z"/>
   <path class="fil0 str0" d="M2017 1195c2,-3 2,-37 0,-40 -1,-3 -3,-7 -5,-8 -1,-1 -6,-5 -8,-5 -3,-1 -8,-1 -12,-1 -13,0 -13,-2 -13,12 0,7 -1,51 1,54 3,3 23,2 24,1 1,0 8,-5 8,-5 2,-2 3,-5 5,-8z"/>
   <path class="fil0 str0" d="M1977 793l0 63c0,6 4,6 10,6 4,0 14,1 17,0 2,-1 9,-4 11,-6 2,-2 6,-9 6,-13l0 -36c0,-4 -4,-11 -6,-13 -8,-9 -19,-7 -32,-7 -3,0 -5,3 -5,6z"/>
   <g>
    <circle class="fil0 str0" cx="3650" cy="2449" r="44"/>
    <circle class="fil0 str0" cx="3650" cy="2449" r="13"/>
   </g>
   <line class="fil0 str0" x1="3001" y1="1850" x2="3000" y2= "1905" />
   <line class="fil0 str0" x1="3450" y1="1850" x2="3450" y2= "1905" />
  </g>
 </g>
</svg>
