<?xml version="1.0" encoding="UTF-8" standalone="no"?>
<svg
   xmlns:dc="http://purl.org/dc/elements/1.1/"
   xmlns:cc="http://creativecommons.org/ns#"
   xmlns:rdf="http://www.w3.org/1999/02/22-rdf-syntax-ns#"
   xmlns:svg="http://www.w3.org/2000/svg"
   xmlns="http://www.w3.org/2000/svg"
   xmlns:sodipodi="http://sodipodi.sourceforge.net/DTD/sodipodi-0.dtd"
   xmlns:inkscape="http://www.inkscape.org/namespaces/inkscape"
   inkscape:version="1.0 (4035a4fb49, 2020-05-01)"
   sodipodi:docname="laserable-555-blinker.svg"
   viewBox="0 0 108 144"
   id="svg1108"
   height="144"
   width="108"
   version="1.1">
  <metadata
     id="metadata1114">
    <rdf:RDF>
      <cc:Work
         rdf:about="">
        <dc:format>image/svg+xml</dc:format>
        <dc:type
           rdf:resource="http://purl.org/dc/dcmitype/StillImage" />
        <dc:title></dc:title>
      </cc:Work>
    </rdf:RDF>
  </metadata>
  <defs
     id="defs1112" />
  <sodipodi:namedview
     inkscape:current-layer="svg1108"
     inkscape:window-maximized="0"
     inkscape:window-y="0"
     inkscape:window-x="0"
     inkscape:cy="93.018743"
     inkscape:cx="35.392126"
     inkscape:zoom="7.2183817"
     showgrid="false"
     id="namedview1110"
     inkscape:window-height="1751"
     inkscape:window-width="3165"
     inkscape:pageshadow="2"
     inkscape:pageopacity="0"
     guidetolerance="10"
     gridtolerance="10"
     objecttolerance="10"
     borderopacity="1"
     bordercolor="#666666"
     pagecolor="#ffffff" />
  <g
     id="Layer1000">
    <path
       id="path833"
       style="fill:none;stroke:#000000;stroke-width:0.216;stroke-linecap:butt;stroke-linejoin:miter;stroke-dasharray:none"
       d="m 83.9927,75.7921 a 1.0351,1.0351 0 0 1 1.0351,1.035 1.0351,1.0351 0 1 1 -1.0351,-1.035 z" />
    <path
       id="path835"
       style="fill:none;stroke:#000000;stroke-width:0.216;stroke-linecap:butt;stroke-linejoin:miter;stroke-dasharray:none"
       d="m 56.2842,106.6156 c 0,0.0342 -9e-4,0.0774 -6e-4,0.1318 0.0058,1.2579 -0.0866,0.9407 1.0436,2.0702 0.6478,0.6474 0.9416,1.1551 1.5733,1.1617 4.9872,0.0518 10.2778,-0.002 15.3005,-0.002 0.6839,0 6.9548,-0.0783 7.0828,0.0698 0.1528,0.3717 0.0135,2.8737 0.0561,3.5659 l 5.3568,-0.0189 -0.0033,-3.5956 c -0.2943,-0.0592 -2.4582,-0.0259 -3.0411,-0.0207 -0.5624,0.005 -0.4455,0.008 -0.7406,-0.2901 -1.3895,-1.4024 -0.8501,-1.1503 -2.913,-1.1503 H 59.78 c -0.8109,3e-4 -0.5453,0.13 -1.3511,-0.6756 -0.8117,-0.8112 -0.7171,-0.5855 -0.7114,-1.2463 h 0.4985 v -6.0698 h -2.3963 v 6.0698 z" />
    <path
       id="path837"
       style="fill:none;stroke:#000000;stroke-width:0.216;stroke-linecap:butt;stroke-linejoin:miter;stroke-dasharray:none"
       d="m 72.5131,120.7983 c 0.4112,-0.0737 8.0902,-0.0211 8.82,-0.0211 l 0.0044,2.1952 5.3508,0.001 -0.0082,-3.6362 -14.167,-0.0215 -6e-4,-1.9943 h -3.635 c -4e-4,1.4794 -0.0517,4.169 0.007,5.5077 h 3.6277 z" />
    <path
       id="path839"
       style="fill:none;stroke:#000000;stroke-width:0.216;stroke-linecap:butt;stroke-linejoin:miter;stroke-dasharray:none"
       d="m 79.4875,37.537 c -0.183,0.1164 -0.3776,0.2302 -0.5731,0.3513 -0.2277,0.1408 -0.392,0.2152 -0.5805,0.3439 -0.5027,0.3435 -2.0287,1.106 -2.2837,1.4218 -0.3787,0.469 0.0153,1.097 0.5381,1.097 h 7.6002 c 0.585,0 0.9241,-0.654 0.5557,-1.1138 -0.2959,-0.3695 -1.0714,-0.2542 -1.6763,-0.2542 -1.3022,0 -2.611,0.0127 -3.9125,-0.0017 0.0081,-0.0112 0.0225,-0.0404 0.0276,-0.0312 l 1.9214,-1.1721 c 0.5255,-0.3327 0.5862,-0.8876 -0.0139,-1.2687 -0.2288,-0.1453 -0.434,-0.2805 -0.6611,-0.4116 l -1.3367,-0.8583 4.8537,7e-4 c 1.4462,0.0088 1.0068,-1.369 0.2908,-1.369 h -7.6976 c -0.4232,0 -0.8656,0.5947 -0.5094,1.0704 0.1913,0.2556 2.8529,1.8293 3.4573,2.1955 z" />
    <path
       id="path841"
       style="fill:none;stroke:#000000;stroke-width:0.216;stroke-linecap:butt;stroke-linejoin:miter;stroke-dasharray:none"
       d="m 89.3607,40.8258 c 0,0.2385 0.2164,0.4937 0.3927,0.5763 0.2618,0.1229 0.649,0.0689 0.9635,0.0689 0.5732,0 1.4887,-0.054 2.0206,0.0139 l 0.0073,2.7782 c -1.3827,0.1947 -3.3841,-0.4226 -3.3841,0.6558 0,0.415 0.3008,0.7281 0.7228,0.7281 h 7.5576 c 0.8939,0 0.9594,-1.2409 0.135,-1.3594 l -3.655,-0.0085 0.0035,-2.8084 3.6537,-0.0122 c 0.7855,-0.1328 0.7356,-1.1962 0.0311,-1.3401 -0.2391,-0.0489 -5.8683,-0.0154 -6.5566,-0.0154 -0.8005,0 -1.8921,-0.1849 -1.8921,0.7228 z" />
    <path
       id="path843"
       style="fill:none;stroke:#000000;stroke-width:0.216;stroke-linecap:butt;stroke-linejoin:miter;stroke-dasharray:none"
       d="m 80.2635,24.7674 c -0.8028,0 -1.6057,0 -2.4085,0 -0.7676,0 -1.6749,-0.1773 -1.9142,0.4555 -0.1338,0.3539 0.0785,0.6697 0.2897,0.8074 0.2572,0.1679 0.7195,0.1052 1.0886,0.1052 1.1163,0 6.8146,0.0567 7.1025,-0.0378 0.6365,-0.2089 0.6292,-1.1604 -0.0706,-1.3128 -0.5285,-0.1149 -1.7162,0.0369 -2.3594,-0.033 -0.1029,-0.1752 -0.2272,-0.3148 -0.3385,-0.4935 0.1397,-0.1392 0.7047,-0.4131 0.9324,-0.5311 l 1.4489,-0.7928 c 0.164,-0.0955 0.3522,-0.1562 0.5075,-0.2716 0.7334,-0.5447 0.218,-1.6123 -0.7823,-1.1239 -0.4857,0.2372 -2.7058,1.511 -2.9815,1.5622 -0.1508,-0.1215 -0.1497,-0.1443 -0.2493,-0.2991 -0.0912,-0.1414 -0.1544,-0.2022 -0.2584,-0.3273 -0.3631,-0.4365 -0.7057,-1.1447 -1.2372,-1.0855 -0.3535,0.0394 -0.5466,0.2642 -0.6036,0.5623 -0.0797,0.4165 0.4908,1.0302 0.827,1.4393 0.0935,0.1138 0.1722,0.2062 0.2568,0.3289 0.0987,0.1432 0.1553,0.202 0.2565,0.3298 z" />
    <path
       id="path845"
       style="fill:none;stroke:#000000;stroke-width:0.216;stroke-linecap:butt;stroke-linejoin:miter;stroke-dasharray:none"
       d="m 96.9842,35.1422 c 0.0532,0.7302 0.2037,2.0588 -0.7957,2.0004 -0.934,-0.0546 -0.8227,-1.219 -0.7724,-2.0062 z M 94.028,35.1351 c 0.0887,0.8738 -0.1894,1.9675 0.7112,2.7893 0.7805,0.7123 2.0471,0.7651 2.6158,0.2816 1.0509,-0.8936 1.0057,-1.0523 1.0057,-2.5454 0,-0.4885 0.1264,-1.2712 -0.1419,-1.6073 -0.3234,-0.4054 -0.8597,-0.2861 -1.5094,-0.2861 -0.8676,0 -2.7058,-0.1282 -3.3686,0.1283 -0.4419,0.1709 -0.8097,0.3665 -1.0423,0.7169 -0.3081,0.4644 -0.3485,0.7748 -0.3459,1.4376 0.0017,0.4486 -0.0678,1.3457 0.0749,1.6615 0.2019,0.4466 0.8483,0.5049 1.1481,0.1155 0.2489,-0.3233 0.1465,-1.1609 0.145,-1.6306 -7e-4,-0.238 -0.0145,-0.6035 0.089,-0.7666 0.0869,-0.1372 0.4274,-0.2571 0.6184,-0.2947 z" />
    <path
       id="path847"
       style="fill:none;stroke:#000000;stroke-width:0.216;stroke-linecap:butt;stroke-linejoin:miter;stroke-dasharray:none"
       d="m 83.5281,29.3754 c 0.005,0.6279 0.1683,1.9801 -0.8012,1.9801 -1.0155,0 -0.7815,-1.2495 -0.7815,-1.9319 z m -2.9514,0.0061 c 0.0069,1.5877 -0.1432,2.2357 1.0543,3.039 0.9275,0.6222 2.412,0.2106 2.8501,-0.6077 0.1807,-0.3375 0.3796,-0.7743 0.4139,-1.2279 0.0377,-0.4979 -3e-4,-1.1353 0.003,-1.6505 0.0032,-0.4987 -0.1724,-0.927 -0.7095,-0.927 h -3.8002 c -1.3654,0 -1.9754,1.0617 -1.9713,2.2932 0.0012,0.3716 -0.0427,1.1363 0.0126,1.46 0.1239,0.7262 1.3559,0.879 1.3572,-0.2879 0.0013,-1.2179 -0.2459,-2.1394 0.7899,-2.0912 z" />
    <path
       id="path849"
       style="fill:none;stroke:#000000;stroke-width:0.216;stroke-linecap:butt;stroke-linejoin:miter;stroke-dasharray:none"
       d="m 79.857,17.9238 c 0,-0.7162 0.8156,-0.9422 1.1523,-0.9178 v 1.9861 C 80.4282,19.0656 79.857,18.7233 79.857,18.2162 Z m -1.3679,-0.1461 c 0,1.1687 0.1586,1.7889 1.3877,2.4117 0.5696,0.2887 2.2893,0.1862 3.045,0.1862 0.4844,0 0.8614,-0.1547 1.1665,-0.3602 0.2478,-0.1671 0.535,-0.5346 0.6691,-0.8412 0.1842,-0.4215 0.1932,-2.2738 0.1376,-2.8987 -0.0584,-0.6572 -0.8834,-0.9019 -1.2614,-0.3188 -0.1829,0.2822 -0.1058,1.7776 -0.1038,2.1624 0.0053,0.9654 -0.3797,0.8885 -1.1527,0.8885 v -2.7405 c 0,-1.0424 -2.3625,-0.721 -3.0992,0.0102 -0.1285,0.1274 -0.4646,0.4337 -0.5486,0.5713 -0.0837,0.1374 -0.2402,0.7652 -0.2402,0.9291 z" />
    <path
       id="path851"
       style="fill:none;stroke:#000000;stroke-width:0.216;stroke-linecap:butt;stroke-linejoin:miter;stroke-dasharray:none"
       d="m 94.4617,25.2717 c -0.686,-0.0012 -1.17,-0.3113 -1.1437,-1.0109 0.0225,-0.5936 0.5298,-0.9734 1.1383,-1.006 z m -0.237,1.3677 h 2.2898 c 0.8457,0 1.8462,-0.7844 1.8462,-1.845 v -2.1927 c 0,-0.8147 -1.1632,-0.9804 -1.348,-0.1801 -0.2394,1.037 0.4891,2.8501 -0.6443,2.8501 l -0.5195,-0.005 c -0.0381,-0.5437 -0.0082,-1.1862 -0.0082,-1.7392 0,-0.6404 0.1209,-1.2033 -0.2986,-1.5141 -0.4411,-0.327 -2.1259,-0.1306 -2.7977,0.521 -0.3838,0.3723 -0.4753,0.499 -0.6984,1.1066 -0.24,0.6537 -0.0345,1.586 0.3873,2.0693 0.1568,0.1795 0.2274,0.3458 0.4394,0.4866 0.3596,0.2387 0.827,0.4425 1.352,0.4425 z" />
    <path
       id="path853"
       style="fill:none;stroke:#000000;stroke-width:0.216;stroke-linecap:butt;stroke-linejoin:miter;stroke-dasharray:none"
       d="m 93.3207,18.9806 c 0,-2.2907 -0.522,-2.0109 4.0225,-1.9885 0.4103,0.002 0.5691,0.0265 0.8065,-0.2104 0.19,-0.1895 0.2837,-0.4485 0.1536,-0.7431 -0.2443,-0.5529 -0.9139,-0.4148 -1.5939,-0.4148 -0.682,0 -1.364,0 -2.0462,0 -0.9075,0 -1.0091,-0.0369 -1.7323,0.3234 -0.4714,0.235 -0.8193,0.5777 -0.9133,1.136 -0.0971,0.5771 -0.0648,1.2643 -0.0648,1.9127 -1e-4,1.6931 0.2177,1.3797 2.6616,1.3797 0.6822,0 1.3642,0 2.0464,0 0.716,0 1.3656,0.1419 1.6238,-0.3889 0.1456,-0.2992 0.0662,-0.5482 -0.1161,-0.7451 -0.2173,-0.2349 -0.3733,-0.2369 -0.776,-0.2347 -0.5544,0.0033 -3.7943,0.0399 -4.0718,-0.0263 z" />
    <path
       id="path855"
       style="fill:none;stroke:#000000;stroke-width:0.216;stroke-linecap:butt;stroke-linejoin:miter;stroke-dasharray:none"
       d="m 95.4691,30.0846 c -0.1661,0.1709 -2.5886,0.9115 -2.7442,0.956 -0.4493,0.1287 -0.955,0.389 -0.7222,0.9944 0.2095,0.5449 0.6692,0.4652 1.2196,0.282 0.8819,-0.2934 1.8643,-0.6057 2.7499,-0.9062 0.467,-0.1585 0.8874,-0.2962 1.3883,-0.4623 0.4269,-0.1416 1.0141,-0.2495 0.9999,-0.8412 -0.0137,-0.5786 -0.5588,-0.6537 -0.9914,-0.8029 -0.7685,-0.2652 -4.4868,-1.6297 -4.8358,-1.5758 -0.5008,0.0772 -1.0858,1.0144 0.1626,1.4193 0.6382,0.2069 2.3154,0.8279 2.7733,0.9367 z" />
    <path
       id="path857"
       style="fill:none;stroke:#000000;stroke-width:0.216;stroke-linecap:butt;stroke-linejoin:miter;stroke-dasharray:none"
       d="m 69.8494,66.9451 c -0.0771,0.3219 -0.5689,1.8475 -0.5749,2.0496 -0.0074,0.2568 0.1802,0.4876 0.3565,0.5735 0.4949,0.2409 0.8813,-0.3535 1.0841,-0.5561 l 1.7667,-1.79 c 0.2046,-0.2044 0.7693,-0.6174 0.6656,-1.0774 -0.0766,-0.3393 -0.6075,-0.7514 -1.0809,-0.2647 -0.1735,0.1784 -0.8004,0.771 -0.8593,0.8908 -0.026,-0.6083 1.0766,-2.266 0.0467,-2.5325 -0.4424,-0.1144 -0.8851,0.438 -1.0768,0.6299 l -1.7904,1.7665 c -0.2115,0.2115 -0.8307,0.6171 -0.56,1.1301 0.2231,0.4225 0.6812,0.4749 1.1183,0.0617 0.2321,-0.2195 0.6741,-0.7363 0.9044,-0.8814 z" />
    <path
       id="path859"
       style="fill:none;stroke:#000000;stroke-width:0.216;stroke-linecap:butt;stroke-linejoin:miter;stroke-dasharray:none"
       d="m 64.8094,64.1663 c 0,0.8048 0.7031,1.3156 1.2118,1.7982 0.7018,0.6658 1.1603,-0.0644 1.7616,-0.6648 0.7635,-0.7622 1.1942,-0.9674 0.4783,-1.7696 -0.1722,-0.1931 -0.5431,-0.6918 -0.9993,-0.358 -0.5354,0.3917 -0.1823,0.8182 -0.1228,0.9942 -0.1345,0.1422 -0.4701,0.5315 -0.6373,0.571 -0.911,-0.6181 -0.2611,-0.9208 0.7422,-1.9257 0.486,-0.4867 0.4913,-0.5634 1.0099,-0.0069 0.3981,0.427 0.6032,0.7697 1.0265,0.7697 0.3117,0 0.576,-0.297 0.5687,-0.6233 -0.0084,-0.3654 -0.2777,-0.5512 -0.4641,-0.7411 -0.8064,-0.8222 -0.8108,-1.0114 -1.9071,-1.0114 -0.5046,0 -1.3496,0.9552 -1.608,1.2133 -0.3947,0.3945 -1.0604,0.8922 -1.0604,1.7544 z" />
    <path
       id="path861"
       style="fill:none;stroke:#000000;stroke-width:0.216;stroke-linecap:butt;stroke-linejoin:miter;stroke-dasharray:none"
       d="m 72.6307,70.8419 c 0.1282,-0.2117 0.6767,-0.7095 0.8907,-0.9232 0.1976,-0.1973 0.72,-0.7901 0.9305,-0.8723 0.1834,0.1875 0.5914,0.433 0.3265,0.8113 -0.1026,0.1466 -1.1973,1.2871 -1.3331,1.3527 -0.3602,0.1736 -0.7063,-0.1369 -0.8146,-0.3685 z m 1.6514,-3.2869 c -0.4013,0.1111 -2.1653,1.995 -2.573,2.4026 -0.6604,0.6601 -0.7949,0.872 -0.181,1.5115 0.4317,0.4497 0.659,0.8736 1.4808,1.0098 0.8118,0.1345 1.2818,-0.3285 1.6975,-0.7418 l 0.8904,-0.9611 c 0.2124,-0.3022 0.6137,-0.5407 0.4882,-1.3409 -0.0866,-0.5518 -0.0993,-0.4969 -0.4012,-0.8562 -0.2292,-0.2727 -0.8571,-1.1749 -1.4017,-1.0239 z" />
    <path
       id="path863"
       style="fill:none;stroke:#000000;stroke-width:0.216;stroke-linecap:butt;stroke-linejoin:miter;stroke-dasharray:none"
       d="m 56.4578,25.1112 c 0.2696,-0.2028 0.6517,-0.8542 0.964,-1.1256 -0.0297,0.4946 -0.0965,0.675 -0.2541,1.0699 -0.2,0.5009 -0.5041,0.4952 -0.7099,0.0557 z m -0.2522,-1.318 c 0.0932,-0.1607 0.0183,-1.2567 0.5128,-1.3334 0.2931,-0.0455 0.3198,0.0411 0.4234,0.1877 -0.051,0.1582 -0.1147,0.2015 -0.214,0.317 -0.1323,0.1534 -0.5543,0.7932 -0.7222,0.8287 z m 0.3221,-2.318 c -0.5997,0.1459 -0.9049,0.433 -1.0752,0.9936 -0.3025,0.9952 -0.3949,2.5051 0.2496,3.384 0.1322,0.1802 0.361,0.3568 0.5539,0.4681 0.2646,0.1525 0.6032,0.1467 0.893,0.0744 0.546,-0.1362 0.7691,-0.5313 0.9797,-1.0582 0.249,-0.6226 0.3493,-0.955 0.2796,-1.7151 -0.0354,-0.386 -0.0188,-0.5006 -0.159,-0.8538 -0.3125,-0.7873 -0.2971,-0.9394 -0.8447,-1.2013 -0.2379,-0.1138 -0.5722,-0.1658 -0.8769,-0.0917 z" />
    <path
       id="path865"
       style="fill:none;stroke:#000000;stroke-width:0.216;stroke-linecap:butt;stroke-linejoin:miter;stroke-dasharray:none"
       d="m 38.513,22.4301 c 0.6152,-0.0146 1.2092,-0.081 1.2087,0.6108 -3e-4,0.6434 -0.8086,0.6171 -1.2253,0.6082 z m -0.0088,2.2328 c 0.714,-0.0139 0.4842,-0.1084 1.1642,1.2912 0.1267,0.2606 0.1819,0.4727 0.5288,0.4997 0.3323,0.026 0.529,-0.2192 0.529,-0.5387 0,-0.2842 -0.6277,-1.1819 -0.6735,-1.5593 0.1529,-0.1464 0.2953,-0.2267 0.4065,-0.4174 0.3252,-0.5583 0.267,-0.6194 0.267,-1.1906 0,-0.1594 -0.1436,-0.3566 -0.2207,-0.5068 -0.3348,-0.6527 -0.804,-0.8205 -1.5286,-0.8226 -1.6383,-0.005 -1.4909,-0.1393 -1.4909,1.6218 0,0.4401 -0.0466,2.8554 0.0274,3.0755 0.1332,0.3971 0.7631,0.4894 0.9395,0.0548 0.1096,-0.2701 0.0197,-1.128 0.0513,-1.5076 z" />
    <path
       id="path867"
       style="fill:none;stroke:#000000;stroke-width:0.216;stroke-linecap:butt;stroke-linejoin:miter;stroke-dasharray:none"
       d="m 46.3421,22.7478 c 0,0.3542 0.2616,0.5939 0.6105,0.5308 0.385,-0.0696 0.3364,-0.3995 0.5383,-0.6379 0.4367,-0.5158 1.515,-0.0122 0.8992,0.7008 l -1.584,1.8767 c -0.1348,0.1501 -0.464,0.4585 -0.464,0.6969 0,0.7316 0.9072,0.5444 1.5991,0.5444 0.807,0 1.6407,0.1797 1.6407,-0.5444 0,-0.629 -1.0363,-0.4634 -1.6232,-0.4634 0.1034,-0.2659 1.4544,-1.6128 1.5471,-2.019 0.1321,-0.5787 0.0774,-0.9617 -0.2195,-1.3961 -0.4034,-0.59 -1.158,-0.7157 -1.9073,-0.5292 -0.2811,0.0699 -0.6755,0.4644 -0.8004,0.705 -0.085,0.1638 -0.2365,0.3814 -0.2365,0.5354 z" />
    <path
       id="path869"
       style="fill:none;stroke:#000000;stroke-width:0.216;stroke-linecap:butt;stroke-linejoin:miter;stroke-dasharray:none"
       d="m 52.3895,25.4517 0.7031,-0.8639 c 0.5002,-0.5954 1.1257,-1.1288 0.7862,-2.2154 -0.0914,-0.2927 -0.575,-0.758 -0.8196,-0.8447 -0.3203,-0.1136 -1.0846,-0.1399 -1.3703,0.0456 -1.0643,0.6908 -1.2299,1.7918 -0.3899,1.7131 0.4453,-0.0417 0.4897,-0.6289 0.8688,-0.7943 0.4605,-0.2009 0.8842,0.1233 0.7671,0.6101 -0.0814,0.3383 -0.4751,0.7069 -0.686,0.9326 -0.1381,0.1474 -0.2458,0.2684 -0.3711,0.4087 -0.2269,0.254 -1.0839,1.2417 -1.1212,1.3638 -0.2126,0.6949 0.6476,0.6531 0.8872,0.6524 0.6901,-0.0025 1.9839,0.1366 2.2373,-0.209 0.1446,-0.197 0.1241,-0.4164 -0.0272,-0.5962 -0.2644,-0.314 -0.9805,-0.2028 -1.4644,-0.2028 z" />
    <path
       id="path871"
       style="fill:none;stroke:#000000;stroke-width:0.216;stroke-linecap:butt;stroke-linejoin:miter;stroke-dasharray:none"
       d="m 43.0188,22.948 0.0112,2.5034 c -0.4269,0 -0.8494,-0.0751 -1.0525,0.199 -0.2685,0.3624 0.0496,0.8091 0.3609,0.8091 h 2.2412 c 0.6679,0 0.6938,-0.7978 0.1947,-0.9791 -0.1729,-0.0629 -0.5363,-0.029 -0.7363,-0.029 v -3.4832 c 0,-0.4401 -0.4158,-0.7012 -0.8219,-0.439 l -0.8613,0.6503 c -0.2205,0.1513 -0.7577,0.5191 -0.3407,0.9418 0.401,0.4065 0.7387,0.0125 1.0047,-0.1733 z" />
    <path
       id="path873"
       style="fill:none;stroke:#000000;stroke-width:0.216;stroke-linecap:butt;stroke-linejoin:miter;stroke-dasharray:none"
       d="m 34.9818,26.4595 h 0.88 c 0.64,0 0.7404,-0.847 0.1607,-0.992 -0.5981,-0.1496 -1.4163,0.2299 -1.4163,-0.5269 v -1.9979 c 0,-0.7631 0.7521,-0.4388 1.3534,-0.5186 0.6168,-0.0816 0.5902,-1.0044 -0.1008,-1.0044 -0.8372,0 -1.6204,-0.1511 -2.0629,0.7249 -0.2755,0.5455 -0.1974,1.0864 -0.1974,1.7727 0,0.6023 -0.0743,1.3371 0.1907,1.7773 0.2013,0.3345 0.6214,0.7649 1.1926,0.7649 z" />
    <path
       id="path875"
       style="fill:none;stroke:#000000;stroke-width:0.216;stroke-linecap:butt;stroke-linejoin:miter;stroke-dasharray:none"
       d="m 88.857,95.7463 c -0.3824,0.0341 -1.2552,-0.1531 -1.2956,0.5858 -0.0445,0.8125 0.9824,0.6412 1.2777,0.6542 0.0543,0.3281 -0.1559,1.1972 0.6142,1.2192 0.7993,0.0227 0.5948,-0.9483 0.6504,-1.2239 0.3034,0 1.268,0.1548 1.274,-0.6072 0.0058,-0.7487 -0.8963,-0.6168 -1.2967,-0.6168 0,-0.2323 0.0249,-0.7305 -0.0379,-0.9004 -0.1679,-0.4545 -0.8876,-0.5679 -1.1267,-0.0421 -0.1042,0.229 -0.0594,0.6673 -0.0594,0.9312 z" />
    <path
       id="path877"
       style="fill:none;stroke:#000000;stroke-width:0.216;stroke-linecap:butt;stroke-linejoin:miter;stroke-dasharray:none"
       d="m 14.2683,118.7089 c 0.1017,-0.4495 0.7547,-2.5064 0.7493,-2.6994 -0.0079,-0.2856 -0.2968,-0.3365 -0.4976,-0.1938 l -1.2704,1.2654 c -0.1802,0.1803 -1.2111,1.1277 -1.2438,1.3363 -0.0346,0.2194 0.1706,0.4011 0.3726,0.325 0.288,-0.1083 1.3554,-1.4631 1.7419,-1.6596 -0.0777,0.4397 -0.3115,1.0731 -0.4286,1.5133 -0.1718,0.646 -0.4986,1.2641 -0.1585,1.425 0.3202,0.129 0.6547,-0.3548 0.8448,-0.5445 l 1.4617,-1.4617 c 0.5048,-0.505 0.6118,-0.4785 0.5089,-0.911 -0.3496,-0.1427 -0.4354,0.006 -0.6307,0.2044 l -0.9499,0.9503 c -0.1644,0.1649 -0.2925,0.3503 -0.4997,0.4503 z" />
    <path
       id="path879"
       style="fill:none;stroke:#000000;stroke-width:0.216;stroke-linecap:butt;stroke-linejoin:miter;stroke-dasharray:none"
       d="m 21.0247,78.4688 c -0.4394,0.1148 -0.8544,-0.0252 -1.2045,-0.162 -0.4518,-0.1766 -0.6368,-0.4649 -0.3221,-0.7323 0.3573,-0.3036 0.5558,0.0561 0.8182,0.2874 z m -0.3394,-1.0721 c -0.1074,-0.0871 -0.0568,-0.0141 -0.1308,-0.1386 0.2723,-0.1671 1.1272,0.1335 1.3507,0.2306 0.5188,0.2252 0.3442,0.7239 -0.1965,0.8095 -0.1235,-0.1532 -0.4092,-0.3736 -0.578,-0.5239 -0.1031,-0.0917 -0.1637,-0.1545 -0.2815,-0.254 -0.0695,-0.0585 -0.112,-0.0815 -0.1639,-0.1236 z m -1.9187,0.462 c 0,0.2124 0.0826,0.4259 0.1906,0.5795 0.2914,0.4144 1.2983,0.6409 1.7996,0.651 0.7346,0.0147 2.0416,-0.2934 2.0416,-1.2305 0,-0.4778 -0.2969,-0.7334 -0.6641,-0.891 -0.9493,-0.4076 -1.7364,-0.4521 -2.6778,-0.0178 -0.3722,0.1716 -0.6899,0.4049 -0.6899,0.9088 z" />
    <path
       id="path881"
       style="fill:none;stroke:#000000;stroke-width:0.216;stroke-linecap:butt;stroke-linejoin:miter;stroke-dasharray:none"
       d="m 67.6677,113.0014 c 1.3208,0 1.3537,0.1004 1.3538,1.4517 2e-4,1.2814 -0.0765,1.4281 -1.3685,1.4281 z m 1.8978,2.3775 c 0.0548,-0.182 0.1273,-1.9015 -0.1043,-2.2749 -0.1616,-0.2608 -0.2245,-0.3012 -0.3991,-0.4313 -0.4323,-0.3225 -0.7753,-0.2434 -1.3909,-0.2482 -0.7881,-0.006 -0.5937,0.237 -0.5937,1.0053 0,0.5522 0,1.1045 0,1.6567 0,0.7063 -0.1271,1.317 0.3003,1.3692 1.0812,0.1318 1.8838,-0.0708 2.1877,-1.0768 z" />
    <path
       id="path883"
       style="fill:none;stroke:#000000;stroke-width:0.216;stroke-linecap:butt;stroke-linejoin:miter;stroke-dasharray:none"
       d="m 16.4196,121.7851 c -0.4929,0 -0.7163,-0.2592 -0.965,-0.5511 0.0822,-0.1611 1.868,-1.9503 2.0343,-2.0409 0.5802,0.5087 0.9102,0.8826 0.3156,1.469 -0.2248,0.2216 -0.9858,1.123 -1.3849,1.123 z m 2.2391,-1.4847 c 0.1272,-0.6247 -0.1705,-0.945 -0.5627,-1.3356 -0.5978,-0.5955 -0.5676,-0.6772 -1.1289,-0.1147 -0.661,0.6623 -1.2849,1.2949 -1.9492,1.9485 -0.1538,0.1514 -0.4082,0.3324 -0.2072,0.6214 0.2175,0.3129 0.7061,0.7052 1.0763,0.8755 0.8137,0.3743 1.4985,-0.3885 1.9653,-0.8547 0.4821,-0.4816 0.6901,-0.5688 0.8064,-1.1404 z" />
    <path
       id="path885"
       style="fill:none;stroke:#000000;stroke-width:0.216;stroke-linecap:butt;stroke-linejoin:miter;stroke-dasharray:none"
       d="m 10.9296,116.628 c -0.1633,-0.1801 -0.5741,-0.5228 -0.6765,-0.7352 -0.16,-0.3318 0.099,-0.4959 0.2217,-0.6604 0.3515,-0.4711 0.4052,-0.4713 0.8361,-0.9189 0.7459,-0.775 0.8716,-0.4902 1.6194,0.2675 0.5951,0.6032 0.7322,0.1125 0.7165,-0.0251 -0.0189,-0.1644 -0.5433,-0.6295 -0.6679,-0.7545 -0.5051,-0.5069 -0.6083,-0.512 -1.1875,-0.512 -0.4757,0 -1.2168,0.981 -1.505,1.3159 -0.5414,0.6296 -1.1515,1.0545 -0.1082,2.0946 0.7534,0.7509 0.6895,0.8025 1.2128,0.2765 l 0.8461,-0.8134 c 0.1646,-0.1449 0.3233,-0.2183 0.3352,-0.4917 0,-5e-4 -0.5046,-0.7955 -0.8615,-0.6178 -0.3602,0.2475 0.0546,0.5219 0.1439,0.74 -0.5129,0.3865 -0.4769,0.4178 -0.9251,0.8345 z" />
    <path
       id="path887"
       style="fill:none;stroke:#000000;stroke-width:0.216;stroke-linecap:butt;stroke-linejoin:miter;stroke-dasharray:none"
       d="m 23.3778,126.6811 c -0.0085,-0.3512 -0.046,-1.4529 0.0258,-1.7281 0.3891,0 0.6592,-0.0458 0.9268,0.1017 0.0644,0.3229 0.0948,0.9376 0.0472,1.2909 -0.0616,0.458 -0.5397,0.3355 -0.9998,0.3355 z m -0.0032,0.5759 c 0.6534,0 0.9947,0.0738 1.3579,-0.2991 0.3047,-0.3128 0.2238,-0.861 0.2267,-1.3952 0.0031,-0.5952 -0.0981,-0.9818 -0.5529,-1.1201 -0.3555,-0.1082 -1.1627,-0.1073 -1.533,-0.0241 -0.1469,0.3278 -0.097,3.7257 -0.0386,3.8311 0.1542,0.2108 0.4602,0.2078 0.5291,-0.0714 0.0342,-0.1383 0.0108,-0.7359 0.0108,-0.9212 z" />
    <path
       id="path889"
       style="fill:none;stroke:#000000;stroke-width:0.216;stroke-linecap:butt;stroke-linejoin:miter;stroke-dasharray:none"
       d="m 64.5669,113.0036 c 0.3336,-0.006 0.9106,0.0353 1.2082,-0.005 0.3731,-0.05 0.3874,-0.5737 -0.0025,-0.5737 h -1.5103 c -0.2026,0 -0.2808,0.1655 -0.2808,0.3709 v 3.3623 c 0,0.4153 0.5253,0.2986 0.914,0.2986 0.3718,-1e-4 0.8752,0.0573 1.1349,-0.0857 0.1762,-0.6728 -0.3855,-0.4632 -1.474,-0.4941 l 0.0119,-1.3619 c 0.8969,-0.0167 1.2611,0.1336 1.0824,-0.5239 -0.3495,-0.0796 -0.6748,-0.0459 -1.0945,-0.0583 z" />
    <path
       id="path891"
       style="fill:none;stroke:#000000;stroke-width:0.216;stroke-linecap:butt;stroke-linejoin:miter;stroke-dasharray:none"
       d="m 90.3109,115.733 c -0.1225,-0.2132 -0.1379,-0.0871 -0.1639,-0.3858 3e-4,-2e-4 2.1314,-0.7908 1.3214,-1.1585 -0.3104,-0.1148 -1.3521,0.6217 -1.7246,0.7459 L 89.299,114.309 c -0.234,-0.2736 -0.5843,-0.1481 -0.5432,0.1879 0.022,0.1796 0.6539,0.8503 0.8349,1.2283 -0.3859,0.0353 -0.8655,0.013 -1.2612,0.0117 -0.4639,-0.001 -0.8375,-0.0615 -0.695,0.4884 0.3527,0.1961 1.4013,0.0879 1.9131,0.0879 0.4655,0 1.5753,0.0939 1.9219,-0.0354 0.2863,-0.1566 0.1741,-0.5012 -0.1253,-0.5396 -0.2613,-0.0336 -0.7408,0.003 -1.0333,-0.005 z" />
    <path
       id="path893"
       style="fill:none;stroke:#000000;stroke-width:0.216;stroke-linecap:butt;stroke-linejoin:miter;stroke-dasharray:none"
       d="m 20.9505,74.0265 c -0.2177,-0.2468 -0.3893,-0.4982 -0.6018,-0.7661 -1.1034,0.0067 0.3076,1.1856 0.3829,1.5044 -1.2318,0.0635 -2.1881,-0.3013 -1.8986,0.5313 0.4301,0.1106 2.978,0.0501 3.6156,0.0501 0.4009,0 0.6034,-0.5759 -0.0813,-0.579 -0.2113,-0.001 -0.485,0.0205 -0.6883,0.0059 -0.2817,-0.0204 -0.2136,-0.1363 -0.3566,-0.251 0.3531,-0.3804 1.8431,-0.6677 1.4018,-1.1654 -0.2262,-0.2552 -0.6551,0.1029 -0.8867,0.2235 z" />
    <path
       id="path895"
       style="fill:none;stroke:#000000;stroke-width:0.216;stroke-linecap:butt;stroke-linejoin:miter;stroke-dasharray:none"
       d="m 20.7375,99.9627 c -0.4124,0.0249 -1.5622,-0.089 -1.8332,0.0485 -0.2687,0.2002 -0.1125,0.5346 0.1462,0.5346 h 3.4591 c 0.2718,0 0.3135,-0.2431 0.253,-0.4843 -0.2465,-0.1337 -0.4497,-0.0946 -0.7896,-0.0912 -0.417,0.0043 -0.519,0.0406 -0.6503,-0.3112 0.2197,-0.0573 0.7078,-0.32 0.9082,-0.4428 0.2298,-0.1407 0.9151,-0.3811 0.4248,-0.72 -0.2594,-0.126 -0.6182,0.179 -0.8474,0.2967 -0.1942,0.0997 -0.6652,0.3607 -0.8578,0.4247 -0.192,-0.1981 -0.2754,-0.3653 -0.4558,-0.5846 -0.2302,-0.2795 -0.5801,-0.196 -0.5717,0.1275 0.0058,0.2226 0.7048,0.9199 0.8145,1.2021 z" />
    <path
       id="path897"
       style="fill:none;stroke:#000000;stroke-width:0.216;stroke-linecap:butt;stroke-linejoin:miter;stroke-dasharray:none"
       d="m 20.9223,126.6811 c -0.4221,0 -0.9363,0.0877 -0.921,-0.3838 0.0145,-0.4446 0.4783,-0.4082 0.9257,-0.4082 z m -1.1772,-1.1067 c -0.2853,0.2526 -0.3791,0.5929 -0.2811,0.9861 0.1241,0.4976 0.361,0.6141 0.7385,0.6746 0.2128,0.0342 0.4614,0.0206 0.7003,0.0226 0.2926,0.002 0.4148,0.0541 0.5563,-0.1355 0.1131,-0.2082 0.0476,-1.3643 0.0452,-1.7075 -0.0074,-1.0215 -0.6581,-1.1168 -1.6312,-1.0399 -0.2934,0.0233 -0.4101,0.2846 -0.2573,0.473 0.3138,0.3871 1.2264,-0.2816 1.3011,0.4653 -0.4793,0 -0.8906,0.0123 -1.1718,0.2613 z" />
    <path
       id="path899"
       style="fill:none;stroke:#000000;stroke-width:0.216;stroke-linecap:butt;stroke-linejoin:miter;stroke-dasharray:none"
       d="m 35.6862,123.8269 c 0.4277,-0.0977 1.512,0.2224 1.512,-0.3592 -0.08,-0.1892 -0.1396,-0.2425 -0.362,-0.2425 -0.3902,0 -1.3662,-0.0603 -1.6812,0.0725 -0.09,0.3356 -0.1229,3.6038 -0.0012,3.8245 0.1542,0.1978 0.2622,0.1411 0.4802,0.0704 0.1154,-0.4379 0.0522,-1.3412 0.0522,-1.8544 0.2681,-0.0598 0.5775,-0.0267 0.855,-0.0248 0.3626,0.002 0.5114,0.0758 0.657,-0.2377 0.0922,-0.4184 -0.531,-0.3399 -0.657,-0.339 -0.2783,0.002 -0.5849,0.0331 -0.855,-0.023 z" />
    <path
       id="path901"
       style="fill:none;stroke:#000000;stroke-width:0.216;stroke-linecap:butt;stroke-linejoin:miter;stroke-dasharray:none"
       d="m 27.9963,124.5545 c 0.3338,0.0859 0.3175,0.0236 0.5216,-0.1459 0.1198,-0.0995 0.293,-0.1888 0.3994,-0.2725 l -3e-4,2.524 c -0.3798,0.0715 -0.6624,-0.0632 -0.9647,0.105 -0.1076,0.3865 -0.0019,0.4945 0.4005,0.4948 l 1.8785,-0.0211 c 0.2461,-0.0808 0.2755,-0.3749 0.0362,-0.5218 -0.1939,-0.0774 -0.5262,-0.0169 -0.7715,-0.0529 -0.0103,-0.7047 0.0838,-2.8817 -0.0463,-3.3666 -0.4101,-0.1719 -0.5874,0.1025 -0.845,0.321 -0.2533,0.2146 -0.4498,0.3443 -0.6943,0.5593 0.002,0.2231 0.005,0.2298 0.0859,0.3767 z" />
    <path
       id="path903"
       style="fill:none;stroke:#000000;stroke-width:0.216;stroke-linecap:butt;stroke-linejoin:miter;stroke-dasharray:none"
       d="m 87.6399,118.633 c -0.0741,0.3123 -0.037,0.3302 0.1376,0.5156 0.5201,0.5522 0.6203,1.0909 1.1438,0.8208 0.1303,-0.543 -0.2242,-0.4274 -0.3716,-0.8485 l 2.5031,0.007 c 0,0.3502 -0.0494,0.6463 0.0889,0.8896 0.2489,0.07 0.4871,0.0401 0.4871,-0.2527 v -1.9491 c 0,-0.1444 -0.134,-0.2781 -0.2785,-0.2781 -0.424,0 -0.2955,0.6003 -0.2984,1.0029 -0.6853,0.0271 -3.0177,-0.1098 -3.412,0.0929 z" />
    <path
       id="path905"
       style="fill:none;stroke:#000000;stroke-width:0.216;stroke-linecap:butt;stroke-linejoin:miter;stroke-dasharray:none"
       d="m 19.0505,102.7775 c -0.1884,0 -0.3328,0.1834 -0.2675,0.3917 0.0322,0.1024 0.2238,0.2887 0.3054,0.3802 0.1389,0.1554 0.1935,0.2092 0.3079,0.3744 0.0999,0.1446 0.1946,0.2235 0.3051,0.3612 0.289,0.003 0.5712,-0.1199 0.3745,-0.451 -0.1062,-0.1786 -0.2859,-0.2333 -0.3548,-0.4805 h 2.4901 c 0.0335,0.3686 -0.0335,0.5842 0.0794,0.8889 0.1668,0.0292 0.5078,0.1399 0.5078,-0.3145 v -1.8029 c 0,-0.1704 -0.118,-0.2834 -0.2888,-0.2834 -0.3833,0 -0.2867,0.4693 -0.2862,0.9359 z" />
    <path
       id="path907"
       style="fill:none;stroke:#000000;stroke-width:0.216;stroke-linecap:butt;stroke-linejoin:miter;stroke-dasharray:none"
       d="m 31.6545,126.3426 c 0,0.559 0.3979,0.9144 0.9416,0.9144 1.3364,0 1.1462,0.0902 1.1462,-1.158 0,-0.305 0.0407,-1.2609 -0.0082,-1.4916 -0.0437,-0.2055 -0.2979,-0.3336 -0.484,-0.1453 -0.1572,0.1589 -0.0812,1.9245 -0.0856,2.2098 -0.7658,0.039 -0.9383,0.0649 -0.936,-0.5719 0.001,-0.2927 0.0018,-0.5854 0.002,-0.8782 2e-4,-0.234 0.0514,-0.6433 -0.0888,-0.7679 -0.2344,-0.2085 -0.4872,-0.015 -0.4872,0.2806 z" />
    <path
       id="path909"
       style="fill:none;stroke:#000000;stroke-width:0.216;stroke-linecap:butt;stroke-linejoin:miter;stroke-dasharray:none"
       d="m 18.7666,80.5387 v 1.8517 c 0,0.3922 0.3132,0.4431 0.7054,0.3638 0.3442,-0.0696 0.3365,-0.5407 -0.1201,-0.568 L 19.3426,80.926 c 0.3383,0.0221 1.1924,0.3055 1.586,0.4142 0.8716,0.2408 1.8698,0.701 1.8698,0.1243 0,-0.3605 -0.6149,-0.382 -0.9018,-0.4639 L 19.715,80.41 c -0.3159,-0.0904 -0.9484,-0.3725 -0.9484,0.1287 z" />
    <path
       id="path911"
       style="fill:none;stroke:#000000;stroke-width:0.216;stroke-linecap:butt;stroke-linejoin:miter;stroke-dasharray:none"
       d="m 21.4306,84.4822 c -0.3236,0.0196 -0.7203,-0.0775 -0.7203,0.2958 0,0.3735 0.3967,0.276 0.7203,0.296 v 0.5933 c -0.5151,-0.0075 -2.2045,-0.7155 -2.5263,-0.5603 -0.5091,0.4018 0.2472,0.5804 0.5324,0.648 2.6473,0.6267 2.5995,1.2307 2.5741,-0.6929 h 0.5518 c 0.1594,0 0.2898,-0.1304 0.2898,-0.2899 v -1e-4 c 0,-0.1595 -0.1304,-0.2899 -0.2898,-0.2899 h -0.556 c 3e-4,-0.2854 0.0144,-0.554 -0.2801,-0.568 -0.3309,-0.016 -0.2959,0.281 -0.2959,0.568 z" />
    <path
       id="path913"
       style="fill:none;stroke:#000000;stroke-width:0.216;stroke-linecap:butt;stroke-linejoin:miter;stroke-dasharray:none"
       d="m 60.8136,116.1586 c 0,0.4158 0.5252,0.2986 0.9152,0.2986 0.3721,-1e-4 0.8745,0.0571 1.1337,-0.0866 0.1749,-0.6614 -0.3846,-0.4732 -1.473,-0.4916 0,-0.6378 0,-1.2755 0,-1.9131 0,-0.7003 0.1365,-1.5405 -0.2941,-1.5405 -0.2044,0 -0.2818,0.1641 -0.2818,0.3709 z" />
    <path
       id="path915"
       style="fill:none;stroke:#000000;stroke-width:0.216;stroke-linecap:butt;stroke-linejoin:miter;stroke-dasharray:none"
       d="m 70.3174,125.6117 c 0,0.4194 0.785,0.2693 1.1518,0.2819 0,0.3636 -0.044,0.8409 0.0752,1.106 0.6138,0.1379 0.501,-0.1394 0.501,-1.1105 0.4005,0 1.1466,0.1349 1.1521,-0.2795 0.0058,-0.4354 -0.7728,-0.2965 -1.1443,-0.2965 -0.0223,-0.3706 0.1406,-1.152 -0.2882,-1.152 -0.4532,0 -0.2839,0.7598 -0.3014,1.1492 -0.6292,0.014 -1.1462,-0.1232 -1.1462,0.3014 z" />
    <path
       id="path917"
       style="fill:none;stroke:#000000;stroke-width:0.216;stroke-linecap:butt;stroke-linejoin:miter;stroke-dasharray:none"
       d="m 18.4881,124.8998 c 0.0126,-0.1959 0.2042,-0.4725 -0.2122,-0.5224 -0.733,-0.0879 -1.5972,0.0229 -1.5972,0.9419 0,0.7623 -0.1875,1.9377 0.8615,1.9377 0.463,0 1.0105,0.1019 1.0105,-0.281 0,-0.7154 -1.2961,0.1894 -1.2961,-0.7309 v -0.9258 c 0,-0.5547 0.7496,-0.2904 1.2335,-0.4195 z" />
    <path
       id="path919"
       style="fill:none;stroke:#000000;stroke-width:0.216;stroke-linecap:butt;stroke-linejoin:miter;stroke-dasharray:none"
       d="m 46.1618,103.2458 c 0,0.4979 0.4743,0.5757 0.8538,0.5757 0.7381,0 0.8386,-1.4399 0,-1.4399 -0.784,0 -0.8538,0.2836 -0.8538,0.8642 z" />
    <path
       id="path921"
       style="fill:none;stroke:#000000;stroke-width:0.216;stroke-linecap:butt;stroke-linejoin:miter;stroke-dasharray:none"
       d="m 83.9927,90.2462 a 1.0351,1.0351 0 0 1 1.0351,1.0351 1.0351,1.0351 0 1 1 -1.0351,-1.0351 z" />
    <path
       id="path923"
       style="fill:none;stroke:#000000;stroke-width:0.216;stroke-linecap:butt;stroke-linejoin:miter;stroke-dasharray:none"
       d="m 48.6341,100.5458 h 2.3963 v 6.0698 H 50.511 c -0.0645,0.4103 0.1485,0.8555 -0.1515,1.2888 -0.2723,0.393 -1.1202,1.1425 -1.5001,1.5222 -0.2519,0.2517 -0.4272,0.5398 -0.9153,0.5525 -1.0005,0.0258 -2.0287,-0.0319 -3.0276,-0.005 -0.3042,0.008 -0.327,0.1264 -0.4854,0.2864 -0.1352,0.1366 -0.2306,0.2306 -0.3656,0.3654 -0.2552,0.255 -0.4752,0.4749 -0.7309,0.7309 -1.978,1.9789 -4.0174,3.9324 -5.9468,5.9558 l 0.5662,0.009 v 3.4663 c 0,0.1688 0.3766,0.4615 0.4933,0.5783 l 3.6058,3.6054 c 0.1902,0.1903 1.3833,1.4733 1.5725,1.5432 0.2237,0.0824 8.3541,0.0224 9.285,0.0224 0.3012,0 0.7991,0.0727 0.9899,-0.0823 0.3385,-0.2746 4.0163,-4.023 4.6494,-4.6559 0.1733,-0.1733 0.9679,-0.8506 0.9679,-1.0598 l 4e-4,-3.4176 h 3.6353 c 4e-4,1.7254 0.0604,3.828 -0.0064,5.5077 -0.83,0 -1.6601,0 -2.4901,0 -1.2231,0 -0.9353,-0.1447 -1.7606,0.6807 -0.5573,0.5575 -3.7797,3.8639 -4.2943,4.2812 -0.3022,0.2449 -0.5393,0.1864 -1.0094,0.1861 h -9.7928 c -0.5299,6e-4 -0.6461,0.0316 -0.9864,-0.2078 -0.5156,-0.3625 -4.6483,-4.7269 -4.9078,-4.8875 -0.2307,-0.1429 -3.102,0.001 -3.5851,-0.0693 l -0.0024,-2.0353 h -11.565 c -0.3406,0 -0.6697,-0.4262 -0.8472,-0.604 l -9.3313,-9.3299 c -0.3049,-0.3044 -1.2959,-1.1262 -1.2959,-1.5553 V 69.6237 c 0,-0.3434 0.414,-0.666 0.5933,-0.8449 l 6.4808,-6.4798 c 0.7687,-0.7669 0.7541,-0.5604 2.3054,-0.5604 h 11.5465 c 0.6989,0 0.9931,0.1111 1.2804,-0.1901 1.0358,-1.0861 7.594,-7.4764 7.8778,-7.9088 l -2.506,-9e-4 -0.0027,-0.1926 7e-4,-10.9311 11.1229,0.0128 v 8.8717 c -10e-4,0.4799 -0.0819,0.5362 0.1894,0.795 2.9235,2.7901 23.2362,23.3812 23.5237,23.4896 0.2115,0.0798 5.3557,0.0221 5.8299,0.0221 0.0372,-0.3889 -0.0791,-0.5984 0.1388,-0.8171 l 1.4165,-1.4104 c 1.3586,-1.3596 0.8066,-1.0845 2.6739,-1.0845 2.5042,0 1.8948,-0.2656 2.9592,0.7991 l 1.4131,1.4129 c 0.1927,0.1922 0.3743,0.2641 0.3743,0.5723 v 3.411 c 0,0.2486 -0.1298,0.3009 -0.2675,0.4357 l -1.0235,1.0228 c -0.1935,0.1935 -1.2167,1.3101 -1.4065,1.3101 h -3.5594 c -0.2136,0 -1.4015,-1.2901 -1.5618,-1.4504 -1.2098,-1.2099 -1.1246,-0.845 -1.1469,-1.8738 -0.5726,-0.1296 -4.1856,-0.0238 -5.2326,-0.0238 -0.5139,0 -1.2081,0.098 -1.5968,-0.1147 -0.5398,-0.2955 -2.9222,-2.808 -3.5406,-3.426 -2.3339,-2.3322 -4.6343,-4.6339 -6.968,-6.967 L 49.1098,54.4215 c -0.1967,-0.1969 -0.6435,-0.7827 -0.9249,-0.7827 h -4.5797 c -0.2886,0 -0.6374,0.4832 -0.8335,0.6792 l -8.1376,8.1362 c -0.8464,0.8464 -0.6532,0.7244 -2.2344,0.7244 H 20.5608 c -0.7223,0 -0.9815,-0.113 -1.2773,0.1975 -0.2456,0.2579 -0.4758,0.4778 -0.7297,0.732 l -5.5305,5.5296 c -0.1165,0.1158 -0.3046,0.236 -0.3046,0.4245 v 38.7385 c 0,0.2076 0.1586,0.29 0.2751,0.4052 l 9.5263,9.5247 c 0.1264,0.1264 0.5186,0.6065 0.7203,0.6065 h 11.0778 l -2e-4,-2.0111 1.1075,-0.005 c 0.1177,-0.3471 2.5738,-2.688 3.0067,-3.1207 l 4.5804,-4.5797 c 1.0026,-1.0029 0.8077,-1.0839 1.9568,-1.0835 0.5196,1e-4 1.0393,0 1.5589,0 0.6962,0 1.0699,0.1039 1.3283,-0.1619 1.0558,-1.0861 1.2145,-0.9215 1.2209,-1.76 h -0.4434 z" />
    <path
       id="path925"
       style="fill:none;stroke:#000000;stroke-width:0.216;stroke-linecap:butt;stroke-linejoin:miter;stroke-dasharray:none"
       d="m 52.2269,100.5458 h 2.3963 v 6.0698 h -0.4963 c -0.0497,0.5966 -0.0091,2.9024 -0.0091,3.2084 0,1.4937 0.1703,1.3636 -0.6411,2.174 -1.0267,1.0258 -2.4471,2.3616 -3.3651,3.4105 l -2.6304,2.5804 c -0.2065,0.1986 -0.1727,0.1805 -0.1684,0.556 0.0132,1.2008 0.0421,3.2094 -0.0046,4.2842 l -3.6277,-0.002 -0.0027,-5.4788 c 0.3065,-0.0754 1.5264,-0.0294 1.9251,-0.027 0.6452,0.004 0.4184,0.0739 1.2171,-0.7251 l 3.9469,-3.9464 c 0.3381,-0.338 0.6368,-0.636 0.9746,-0.9742 0.1932,-0.1932 0.9363,-0.8365 0.9363,-1.0724 v -3.9468 l -2e-4,-0.0411 h -0.4507 z" />
    <path
       id="path927"
       style="fill:none;stroke:#000000;stroke-width:0.216;stroke-linecap:butt;stroke-linejoin:miter;stroke-dasharray:none"
       d="m 48.6341,83.1457 h 2.3963 v 6.0698 h -0.5126 v 3.4563 c 0,0.1914 0.9448,1.0324 1.1259,1.2184 0.3353,0.3442 0.2972,0.2481 0.9258,0.2477 l 5.8955,-4e-4 c 0.8565,-0.004 0.9251,0.3088 1.4756,0.859 1.6442,1.6431 1.3772,1.026 1.3772,3.279 v 2.2703 h 0.491 v 0.7901 c 0.6611,-0.6046 2.2281,-2.2372 2.5575,-2.5665 0.9449,-0.9449 1.8546,-1.8534 2.8018,-2.8013 l 4.1662,-4.1657 c 0.3077,-0.3075 1.1055,-1.2645 1.5513,-1.2645 h 6.6441 c 0.005,-1.5048 -0.1465,-0.9906 1.3037,-2.4398 0.2046,-0.2045 1.1963,-1.3042 1.4064,-1.3042 h 3.5565 c 0.1489,0 0.4556,0.3566 0.539,0.4588 0.3177,-0.2034 3.3388,-3.3119 3.6853,-3.6586 l 3.2403,-3.2398 c 0.1481,-0.1478 0.3839,-0.2736 0.3839,-0.5465 v -9.5019 c 0,-0.2343 -0.1051,-0.2671 -0.24,-0.398 L 73.3043,49.8115 C 72.88,49.3874 72.8647,49.1714 72.2269,49.2254 l -0.0017,3.4053 h -9.1074 v -9.1076 h 3.3535 c 0.1089,-0.3698 0.0131,-16.2371 0.0322,-18.1948 0.0043,-0.4409 -0.0356,-0.375 -0.2699,-0.6053 L 63.6265,22.1167 C 63.4741,21.9643 62.0172,20.4115 61.8262,20.4115 H 26.9675 c -0.239,0 -0.7153,0.6048 -0.8948,0.7836 l -3.4598,3.459 c -0.2081,0.2068 -0.317,0.2028 -0.322,0.5749 l 0.0037,4.3894 c 0,4.6348 0,9.2696 0,13.9044 l 3.4065,6e-4 0.0135,9.0938 c -0.9061,0.0798 -7.6391,0.0141 -9.1079,0.0135 0,-1.4896 -0.0633,-8.175 0.015,-9.1083 l 3.3666,4e-4 0.0021,-19.1183 c 0,-0.5548 1.016,-1.3855 1.3916,-1.7611 l 3.9468,-3.9466 c 0.2384,-0.2386 0.5159,-0.5892 1.0297,-0.5892 h 36.1011 c 0.6565,0 1.7518,1.3075 2.2011,1.7567 0.6711,0.6708 1.3045,1.3043 1.9732,1.9733 0.4289,0.4289 1.687,1.5813 1.9473,1.9982 0.3274,0.5244 0.2242,1.0529 0.2242,1.7869 v 17.8838 l 3.4125,0.0183 0.009,3.3822 c 1.8267,0 1.4507,-0.0116 3.0375,1.5773 L 94.8042,68.021 c 0.3111,0.3112 0.9138,0.8082 1.0838,1.2624 0.1567,0.418 0.0606,8.0148 0.0606,9.16 0,2.3728 0.3663,2.1453 -1.0442,3.5547 -0.7853,0.7846 -1.5294,1.5296 -2.3146,2.3142 -0.7744,0.774 -1.516,1.5157 -2.2903,2.2898 -0.3947,0.3948 -0.7521,0.7518 -1.1449,1.1449 -0.2045,0.205 -0.3771,0.3775 -0.5848,0.5847 -0.1822,0.1821 -0.4225,0.3946 -0.5676,0.5805 0.1779,0.1625 0.4945,0.3634 0.4945,0.6411 v 3.5084 c 0,0.1925 -0.2706,0.3871 -0.3908,0.5071 l -1.34,1.3397 c -1.1804,1.1823 -0.5799,0.8491 -2.7723,0.8491 -0.3989,0 -1.4278,0.0527 -1.7538,-0.0035 -0.1984,-0.0342 -0.3664,-0.275 -0.4904,-0.3991 -0.3141,-0.3144 -2.2163,-2.1143 -2.2163,-2.2933 v -1.0838 h -6.1634 c -0.2501,0 -0.3407,0.1864 -0.4709,0.3173 l -9.453,9.4518 c -0.5565,0.5563 -1.0688,1.0846 -1.6328,1.6316 l -0.0042,0.004 v 3.2329 h -2.3963 v -6.0698 h 0.4651 v -0.0288 -3.4597 c 0,-0.2105 -0.787,-0.9007 -0.9666,-1.08 -0.2223,-0.2219 -0.2786,-0.3959 -0.6373,-0.4032 -1.7367,-0.0359 -3.4799,0.0037 -5.2169,0.0037 -2.0057,0 -1.6159,0.1655 -2.9532,-1.1706 -1.3643,-1.363 -1.0258,-0.9937 -1.0258,-3.1639 -0.1379,0.0665 -0.0522,0.013 -0.1663,0.1103 -0.0547,0.0466 -0.0898,0.0907 -0.1445,0.1467 -0.1072,0.1092 -0.1827,0.1831 -0.292,0.2924 -0.1997,0.1995 -0.3612,0.3612 -0.5604,0.5602 L 35.489,104.7763 c -0.7649,0.765 -1.5029,1.4983 -2.2657,2.2656 -0.5973,0.601 -0.9057,0.4155 -1.8468,0.4155 -0.7244,0 -1.5503,-0.0366 -2.2622,0.006 l -0.0177,1.1095 c -1.7637,0 -3.6084,0.0592 -5.3623,-0.007 l 10e-5,-3.6199 c 1.2544,-0.0716 3.9599,-0.009 5.3645,-0.009 l 0.0027,1.0698 c 0.9706,0.0663 1.96,0.0106 2.9327,0.0102 0.2507,0 0.4686,-0.3122 0.5992,-0.4426 l 7.9667,-7.9658 c 1.4243,-1.4225 2.8134,-2.8144 4.2395,-4.2385 0.5231,-0.5227 3.4985,-3.4199 4.1523,-4.1551 h -0.3579 z" />
    <path
       id="path929"
       style="fill:none;stroke:#000000;stroke-width:0.216;stroke-linecap:butt;stroke-linejoin:miter;stroke-dasharray:none"
       d="m 52.2269,83.1457 h 0.4516 c 0.0139,-0.6364 0.0265,-0.5644 -0.3086,-0.8969 -0.2262,-0.2245 -0.999,-1.0708 -1.1644,-1.0708 -4.5193,0 -9.0318,0 -13.5441,0 -0.222,0 -0.3515,0.2128 -0.4804,0.342 l -2.8263,2.8257 c -0.3512,0.3508 -1.3019,1.4541 -1.7623,1.5074 -0.6121,0.0708 -2.6185,-0.042 -3.4896,0.0146 l -0.0039,1.1063 h -1.9758 l -0.001,3.9967 c 0.0668,1.0072 -0.0891,3.9626 0.022,4.6071 h 1.9542 l 6e-4,3.636 c -1.2799,4e-4 -4.2791,0.0518 -5.3645,-0.0088 v -3.6258 l 1.9303,-9e-4 c 0.0565,-0.7295 0.0269,-7.2493 0.0145,-8.4126 l -0.0042,-0.1912 -1.9413,-0.0077 0.0193,-3.6291 5.3445,0.0205 0.0011,1.0597 c 0.317,0 2.9572,0.0444 3.1385,-0.0346 0.1974,-0.086 4.3767,-4.4844 4.7146,-4.6023 0.3071,-0.1072 12.6998,-0.0366 14.4496,-0.0441 0.6499,-0.0027 0.7498,0.2358 1.2908,0.7768 1.5644,1.5645 1.408,1.1594 1.4255,2.632 h 0.5056 v 6.0698 h -2.3963 z" />
    <path
       id="path931"
       style="fill:none;stroke:#000000;stroke-width:0.216;stroke-linecap:butt;stroke-linejoin:miter;stroke-dasharray:none"
       d="m 55.8197,83.1457 h 0.4584 c 0.0129,-0.8171 0.0598,-4.0336 -0.0477,-4.2212 l -2.118,-2.1218 c -0.3025,-0.304 -0.1813,-0.3098 -0.763,-0.305 -5.1929,0.042 -10.6088,5e-4 -15.7854,5e-4 -0.8486,0 -7.8221,-0.0467 -8.465,0.0107 l -0.0017,1.1055 -5.3634,-0.0069 0.0157,-3.6291 5.3422,-4e-4 0.0238,1.0744 c 1.4418,0.0833 3.1304,0.006 4.5995,0.006 1.9568,0 20.3307,-0.0619 20.6331,0.0352 0.2868,0.0921 0.9854,0.8729 1.207,1.0945 0.3926,0.3924 0.7501,0.7497 1.1452,1.1449 0.383,0.3832 0.9712,0.8474 1.0121,1.2666 0.0604,0.6197 -0.0051,3.4577 0.0056,4.5461 h 0.4979 v 6.0698 h -2.3963 z" />
    <path
       id="path933"
       style="fill:none;stroke:#000000;stroke-width:0.216;stroke-linecap:butt;stroke-linejoin:miter;stroke-dasharray:none"
       d="m 59.4125,83.1457 v 6.0698 h 2.3963 v -6.0698 z" />
    <path
       id="path935"
       style="fill:none;stroke:#000000;stroke-width:0.216;stroke-linecap:butt;stroke-linejoin:miter;stroke-dasharray:none"
       d="m 51.1751,83.1457 v 6.0698" />
    <path
       id="path937"
       style="fill:none;stroke:#000000;stroke-width:0.216;stroke-linecap:butt;stroke-linejoin:miter;stroke-dasharray:none"
       d="m 51.3551,83.1457 v 6.0698" />
    <path
       id="path939"
       style="fill:none;stroke:#000000;stroke-width:0.216;stroke-linecap:butt;stroke-linejoin:miter;stroke-dasharray:none"
       d="m 51.5351,83.1457 v 6.0698" />
    <path
       id="path941"
       style="fill:none;stroke:#000000;stroke-width:0.216;stroke-linecap:butt;stroke-linejoin:miter;stroke-dasharray:none"
       d="m 51.7151,83.1457 v 6.0698" />
    <path
       id="path943"
       style="fill:none;stroke:#000000;stroke-width:0.216;stroke-linecap:butt;stroke-linejoin:miter;stroke-dasharray:none"
       d="m 51.8951,83.1457 v 6.0698" />
    <path
       id="path945"
       style="fill:none;stroke:#000000;stroke-width:0.216;stroke-linecap:butt;stroke-linejoin:miter;stroke-dasharray:none"
       d="m 52.0751,83.1457 v 6.0698" />
    <path
       id="path947"
       style="fill:none;stroke:#000000;stroke-width:0.216;stroke-linecap:butt;stroke-linejoin:miter;stroke-dasharray:none"
       d="m 54.7715,83.1457 v 6.0698" />
    <path
       id="path949"
       style="fill:none;stroke:#000000;stroke-width:0.216;stroke-linecap:butt;stroke-linejoin:miter;stroke-dasharray:none"
       d="m 54.9515,83.1457 v 6.0698" />
    <path
       id="path951"
       style="fill:none;stroke:#000000;stroke-width:0.216;stroke-linecap:butt;stroke-linejoin:miter;stroke-dasharray:none"
       d="m 55.1315,83.1457 v 6.0698" />
    <path
       id="path953"
       style="fill:none;stroke:#000000;stroke-width:0.216;stroke-linecap:butt;stroke-linejoin:miter;stroke-dasharray:none"
       d="m 55.3115,83.1457 v 6.0698" />
    <path
       id="path955"
       style="fill:none;stroke:#000000;stroke-width:0.216;stroke-linecap:butt;stroke-linejoin:miter;stroke-dasharray:none"
       d="m 55.4915,83.1457 v 6.0698" />
    <path
       id="path957"
       style="fill:none;stroke:#000000;stroke-width:0.216;stroke-linecap:butt;stroke-linejoin:miter;stroke-dasharray:none"
       d="m 55.6715,83.1457 v 6.0698" />
    <path
       id="path959"
       style="fill:none;stroke:#000000;stroke-width:0.216;stroke-linecap:butt;stroke-linejoin:miter;stroke-dasharray:none"
       d="m 58.3642,83.1457 v 6.0698" />
    <path
       id="path961"
       style="fill:none;stroke:#000000;stroke-width:0.216;stroke-linecap:butt;stroke-linejoin:miter;stroke-dasharray:none"
       d="m 58.5442,83.1457 v 6.0698" />
    <path
       id="path963"
       style="fill:none;stroke:#000000;stroke-width:0.216;stroke-linecap:butt;stroke-linejoin:miter;stroke-dasharray:none"
       d="m 58.7242,83.1457 v 6.0698" />
    <path
       id="path965"
       style="fill:none;stroke:#000000;stroke-width:0.216;stroke-linecap:butt;stroke-linejoin:miter;stroke-dasharray:none"
       d="m 58.9042,83.1457 v 6.0698" />
    <path
       id="path967"
       style="fill:none;stroke:#000000;stroke-width:0.216;stroke-linecap:butt;stroke-linejoin:miter;stroke-dasharray:none"
       d="m 59.0842,83.1457 v 6.0698" />
    <path
       id="path969"
       style="fill:none;stroke:#000000;stroke-width:0.216;stroke-linecap:butt;stroke-linejoin:miter;stroke-dasharray:none"
       d="m 59.2642,83.1457 v 6.0698" />
    <path
       id="path971"
       style="fill:none;stroke:#000000;stroke-width:0.216;stroke-linecap:butt;stroke-linejoin:miter;stroke-dasharray:none"
       d="m 51.1751,100.5458 v 6.0698" />
    <path
       id="path973"
       style="fill:none;stroke:#000000;stroke-width:0.216;stroke-linecap:butt;stroke-linejoin:miter;stroke-dasharray:none"
       d="m 51.3551,100.5458 v 6.0698" />
    <path
       id="path975"
       style="fill:none;stroke:#000000;stroke-width:0.216;stroke-linecap:butt;stroke-linejoin:miter;stroke-dasharray:none"
       d="m 51.5351,100.5458 v 6.0698" />
    <path
       id="path977"
       style="fill:none;stroke:#000000;stroke-width:0.216;stroke-linecap:butt;stroke-linejoin:miter;stroke-dasharray:none"
       d="m 51.7151,100.5458 v 6.0698" />
    <path
       id="path979"
       style="fill:none;stroke:#000000;stroke-width:0.216;stroke-linecap:butt;stroke-linejoin:miter;stroke-dasharray:none"
       d="m 51.8951,100.5458 v 6.0698" />
    <path
       id="path981"
       style="fill:none;stroke:#000000;stroke-width:0.216;stroke-linecap:butt;stroke-linejoin:miter;stroke-dasharray:none"
       d="m 52.0751,100.5458 v 6.0698" />
    <path
       id="path983"
       style="fill:none;stroke:#000000;stroke-width:0.216;stroke-linecap:butt;stroke-linejoin:miter;stroke-dasharray:none"
       d="m 54.7715,100.5458 v 6.0698" />
    <path
       id="path985"
       style="fill:none;stroke:#000000;stroke-width:0.216;stroke-linecap:butt;stroke-linejoin:miter;stroke-dasharray:none"
       d="m 54.9515,100.5458 v 6.0698" />
    <path
       id="path987"
       style="fill:none;stroke:#000000;stroke-width:0.216;stroke-linecap:butt;stroke-linejoin:miter;stroke-dasharray:none"
       d="m 55.1315,100.5458 v 6.0698" />
    <path
       id="path989"
       style="fill:none;stroke:#000000;stroke-width:0.216;stroke-linecap:butt;stroke-linejoin:miter;stroke-dasharray:none"
       d="m 55.3115,100.5458 v 6.0698" />
    <path
       id="path991"
       style="fill:none;stroke:#000000;stroke-width:0.216;stroke-linecap:butt;stroke-linejoin:miter;stroke-dasharray:none"
       d="m 55.4915,100.5458 v 6.0698" />
    <path
       id="path993"
       style="fill:none;stroke:#000000;stroke-width:0.216;stroke-linecap:butt;stroke-linejoin:miter;stroke-dasharray:none"
       d="m 55.6715,100.5458 v 6.0698" />
    <path
       id="path995"
       style="fill:none;stroke:#000000;stroke-width:0.216;stroke-linecap:butt;stroke-linejoin:miter;stroke-dasharray:none"
       d="m 58.3642,100.5458 v 6.0698" />
    <path
       id="path997"
       style="fill:none;stroke:#000000;stroke-width:0.216;stroke-linecap:butt;stroke-linejoin:miter;stroke-dasharray:none"
       d="m 58.5442,100.5458 v 6.0698" />
    <path
       id="path999"
       style="fill:none;stroke:#000000;stroke-width:0.216;stroke-linecap:butt;stroke-linejoin:miter;stroke-dasharray:none"
       d="m 58.7242,100.5458 v 6.0698" />
    <path
       id="path1001"
       style="fill:none;stroke:#000000;stroke-width:0.216;stroke-linecap:butt;stroke-linejoin:miter;stroke-dasharray:none"
       d="m 58.9042,100.5458 v 6.0698" />
    <path
       id="path1003"
       style="fill:none;stroke:#000000;stroke-width:0.216;stroke-linecap:butt;stroke-linejoin:miter;stroke-dasharray:none"
       d="m 59.0842,100.5458 v 6.0698" />
    <path
       id="path1005"
       style="fill:none;stroke:#000000;stroke-width:0.216;stroke-linecap:butt;stroke-linejoin:miter;stroke-dasharray:none"
       d="m 59.2642,100.5458 v 6.0698" />
    <path
       id="path1007"
       style="fill:none;stroke:#000000;stroke-width:0.216;stroke-linecap:butt;stroke-linejoin:miter;stroke-dasharray:none"
       d="m 25.8821,43.3421 h -3.5877 m -2.3062,0 h -3.5625 v 9.4697 h 9.4564 v -9.4697" />
    <path
       id="path1009"
       style="fill:none;stroke:#000000;stroke-width:0.216;stroke-linecap:butt;stroke-linejoin:miter;stroke-dasharray:none"
       d="m 26.0786,43.1454 h -3.7842 m -2.3062,0 h -3.7589 v 9.8632 h 9.8493 v -9.8632" />
    <path
       id="path1011"
       style="fill:none;stroke:#000000;stroke-width:0.216;stroke-linecap:butt;stroke-linejoin:miter;stroke-dasharray:none"
       d="m 26.2946,42.9291 h -4.0002 m -2.3062,0 H 16.0133 V 53.2248 H 26.2946 V 42.9291" />
    <path
       id="path1013"
       style="fill:none;stroke:#000000;stroke-width:0.216;stroke-linecap:butt;stroke-linejoin:miter;stroke-dasharray:none"
       d="m 72.403,43.3421 h -3.5976 m -2.3186,0 h -3.5402 v 9.4697 h 9.4564 v -3.5946 m 0,-2.3104 v -3.5647" />
    <path
       id="path1015"
       style="fill:none;stroke:#000000;stroke-width:0.216;stroke-linecap:butt;stroke-linejoin:miter;stroke-dasharray:none"
       d="m 72.5994,43.1454 h -3.794 m -2.3115,0 h -3.7438 v 9.8632 h 9.8493 v -3.7751 m 0,-2.3262 v -3.7619" />
    <path
       id="path1017"
       style="fill:none;stroke:#000000;stroke-width:0.216;stroke-linecap:butt;stroke-linejoin:miter;stroke-dasharray:none"
       d="m 72.8154,42.9291 h -4.01 m -2.3062,0 h -3.9651 v 10.2957 h 10.2813 v -3.9065 m 0,-2.4089 v -3.9803" />
    <path
       id="path1019"
       style="fill:none;stroke:#000000;stroke-width:0.216;stroke-linecap:butt;stroke-linejoin:miter;stroke-dasharray:none"
       d="m 48.5073,83.0125 h 4.1742 m 1.435,0 h 2.1636 m 1.437,0 h 4.2182 v 6.336 H 50.5176 m -1.6472,0 h -0.3631 v -6.336" />
    <path
       id="path1021"
       style="fill:none;stroke:#000000;stroke-width:0.216;stroke-linecap:butt;stroke-linejoin:miter;stroke-dasharray:none"
       d="m 48.3813,82.8865 h 4.3024 m 1.4322,0 h 2.166 m 1.4349,0 h 4.3447 v 6.5881 H 50.5176 m -1.766,0 h -0.3703 v -6.5881" />
    <path
       id="path1023"
       style="fill:none;stroke:#000000;stroke-width:0.216;stroke-linecap:butt;stroke-linejoin:miter;stroke-dasharray:none"
       d="m 48.2554,82.7606 h 4.4271 m 1.4332,0 h 2.168 m 1.4332,0 h 4.4704 v 6.8399 H 50.5176 m -1.8866,0 h -0.3756 v -6.8399" />
    <path
       id="path1025"
       style="fill:none;stroke:#000000;stroke-width:0.216;stroke-linecap:butt;stroke-linejoin:miter;stroke-dasharray:none"
       d="m 48.5073,100.4125 h 11.3703 m 1.44,0 h 0.6177 v 0.8054 m 0,2.0413 v 3.4893 h -4.2202 m -1.4315,0 h -2.1653 m -1.4407,0 h -2.179 m -1.4239,0 h -0.5674 v -6.336" />
    <path
       id="path1027"
       style="fill:none;stroke:#000000;stroke-width:0.216;stroke-linecap:butt;stroke-linejoin:miter;stroke-dasharray:none"
       d="m 48.3813,100.2865 h 11.4963 m 1.44,0 h 0.7439 v 0.8112 m 0,2.0378 v 3.7392 h -4.3497 m -1.4279,0 h -2.1707 m -1.4356,0 h -2.1781 m -1.4319,0 h -0.6863 v -6.5882" />
    <path
       id="path1029"
       style="fill:none;stroke:#000000;stroke-width:0.216;stroke-linecap:butt;stroke-linejoin:miter;stroke-dasharray:none"
       d="m 48.2554,100.1607 h 11.6222 m 1.44,0 h 0.8697 v 0.8149 m 0,2.0356 v 3.9893 h -4.4741 m -1.4295,0 h -2.174 m -1.4321,0 H 50.507 m -1.4549,0 h -0.7967 v -6.8398" />
  </g>
  <path
     id="path1032"
     style="fill:none;stroke:#000000;stroke-width:0.216;stroke-linecap:butt;stroke-linejoin:miter;stroke-dasharray:none"
     d="m 50.1595,42.3464 h -11.484 v 11.4739 h 2.534 m 2.0354,0 h 5.2878 m 1.6268,-1.6332 v -9.8407" />
  <path
     id="path1034"
     style="fill:none;stroke:#000000;stroke-width:0.216;stroke-linecap:butt;stroke-linejoin:miter;stroke-dasharray:none"
     d="m 50.3395,42.1666 h -11.844 v 11.8335 h 2.546 m 2.0196,0 h 5.6611 m 1.6173,-1.64 V 42.1666" />
  <path
     id="path1036"
     style="fill:none;stroke:#000000;stroke-width:0.216;stroke-linecap:butt;stroke-linejoin:miter;stroke-dasharray:none"
     d="M 50.5195,41.9867 H 38.3155 V 54.18 h 2.5537 m 2.0297,0 h 5.9904 m 1.6302,-1.6453 v -10.548" />
  <path
     id="path1038"
     style="fill:none;stroke:#000000;stroke-width:0.216;stroke-linecap:butt;stroke-linejoin:miter;stroke-dasharray:none"
     d="m 50.6995,41.8069 h -12.564 v 12.5529 h 2.5591 m 2.0353,0 h 6.3211 m 1.6485,-1.6493 V 41.8069" />
  <path
     id="path1040"
     style="fill:none;stroke:#000000;stroke-width:0.216;stroke-linecap:butt;stroke-linejoin:miter;stroke-dasharray:none"
     d="m 50.8795,41.627 h -12.924 v 12.9127 h 2.563 m 2.0315,0 h 6.6779 m 1.6516,-1.6527 v -11.26" />
  <path
     id="path1042"
     style="fill:none;stroke:#000000;stroke-width:0.216;stroke-linecap:butt;stroke-linejoin:miter;stroke-dasharray:none"
     d="m 51.0595,41.4472 h -13.284 v 13.2724 h 2.5659 m 2.0286,0 h 7.0377 M 51.0595,53.064 V 41.4472" />
  <path
     id="path1044"
     style="fill:none;stroke:#000000;stroke-width:0.216;stroke-linecap:butt;stroke-linejoin:miter;stroke-dasharray:none"
     d="m 51.2395,41.2673 h -13.644 v 13.6321 h 2.568 m 2.0266,0 h 7.3976 m 1.6518,-1.6578 V 41.2673" />
  <path
     id="path1046"
     style="fill:none;stroke:#000000;stroke-width:0.216;stroke-linecap:butt;stroke-linejoin:miter;stroke-dasharray:none"
     d="m 51.4195,41.0874 h -14.004 v 13.9919 h 2.5694 m 2.0254,0 h 7.7573 m 1.6519,-1.6599 v -12.332" />
  <path
     id="path1048"
     style="fill:none;stroke:#000000;stroke-width:0.216;stroke-linecap:butt;stroke-linejoin:miter;stroke-dasharray:none"
     d="m 51.5995,40.9076 h -14.364 v 14.3515 h 2.5704 m 2.0245,0 h 8.117 m 1.6521,-1.6615 v -12.69" />
  <path
     id="path1050"
     style="fill:none;stroke:#000000;stroke-width:0.216;stroke-linecap:butt;stroke-linejoin:miter;stroke-dasharray:none"
     d="M 51.7795,40.7277 H 37.0555 V 55.439 h 2.5708 m 2.0241,0 h 8.4769 m 1.6522,-1.663 V 40.7277" />
  <path
     id="path1052"
     style="fill:none;stroke:#000000;stroke-width:0.216;stroke-linecap:butt;stroke-linejoin:miter;stroke-dasharray:none"
     d="m 51.9595,40.5479 h -15.084 v 15.0709 h 2.5711 m 2.024,0 h 8.8367 m 1.6522,-1.664 V 40.5479" />
  <path
     id="path1054"
     style="fill:none;stroke:#000000;stroke-width:0.216;stroke-linecap:butt;stroke-linejoin:miter;stroke-dasharray:none"
     d="m 52.1395,40.368 h -15.444 v 15.4307 h 2.571 m 2.0242,0 h 9.1965 m 1.6523,-1.6651 V 40.368" />
  <path
     id="path1056"
     style="fill:none;stroke:#000000;stroke-width:0.216;stroke-linecap:butt;stroke-linejoin:miter;stroke-dasharray:none"
     d="M 52.3858,40.1221 H 36.4491 v 15.9225 h 2.5706 m 2.025,0 h 9.6884 m 1.6527,-1.6659 V 40.1221" />
  <path
     id="path1058"
     style="fill:none;stroke:#000000;stroke-width:0.216;stroke-linecap:butt;stroke-linejoin:miter;stroke-dasharray:none"
     d="M 52.6078,39.9003 H 36.2272 v 16.3661 h 2.5697 m 2.0259,0 H 50.955 m 1.6528,-1.6668 V 39.9003" />
  <path
     id="path1060"
     style="fill:none;stroke:#000000;stroke-width:0.216;stroke-linecap:butt;stroke-linejoin:miter;stroke-dasharray:none"
     d="M 52.8297,39.6785 H 36.0052 v 16.8097 h 2.5685 m 2.0273,0 h 10.5758 m 1.6529,-1.6673 V 39.6785" />
  <path
     id="path1062"
     style="fill:none;stroke:#000000;stroke-width:0.216;stroke-linecap:butt;stroke-linejoin:miter;stroke-dasharray:none"
     d="M 53.0517,39.4567 H 35.7833 V 56.71 h 2.567 m 2.0288,0 h 11.0195 m 1.6531,-1.6677 V 39.4567" />
  <path
     id="path1064"
     style="fill:none;stroke:#000000;stroke-width:0.216;stroke-linecap:butt;stroke-linejoin:miter;stroke-dasharray:none"
     d="M 53.2736,39.2349 H 35.5613 v 17.697 h 2.5655 m 2.0305,0 h 11.4632 m 1.6531,-1.6681 V 39.2349" />
  <path
     id="path1066"
     style="fill:none;stroke:#000000;stroke-width:0.216;stroke-linecap:butt;stroke-linejoin:miter;stroke-dasharray:none"
     d="M 53.4956,39.0132 H 35.3394 v 18.1403 h 2.5638 m 2.0324,0 h 11.9067 m 1.6533,-1.668 V 39.0132" />
  <path
     id="path1068"
     style="fill:none;stroke:#000000;stroke-width:0.216;stroke-linecap:butt;stroke-linejoin:miter;stroke-dasharray:none"
     d="M 53.7175,38.7914 H 35.1174 v 18.5839 h 2.5618 m 2.0344,0 h 12.3505 m 1.6534,-1.668 V 38.7914" />
  <path
     id="path1070"
     style="fill:none;stroke:#000000;stroke-width:0.216;stroke-linecap:butt;stroke-linejoin:miter;stroke-dasharray:none"
     d="m 53.9395,38.5696 h -19.044 v 19.0275 h 2.5598 m 2.0365,0 h 12.7941 m 1.6536,-1.6679 V 38.5696" />
  <path
     id="path1072"
     style="fill:none;stroke:#000000;stroke-width:0.216;stroke-linecap:butt;stroke-linejoin:miter;stroke-dasharray:none"
     d="M 54.156,38.3534 H 34.6789 v 19.4599 h 2.558 m 2.0388,0 H 52.5022 M 54.156,56.1459 V 38.3534" />
  <path
     id="path1074"
     style="fill:none;stroke:#000000;stroke-width:0.216;stroke-linecap:butt;stroke-linejoin:miter;stroke-dasharray:none"
     d="M 54.42,38.0897 H 34.415 v 19.9874 h 2.5553 m 2.0415,0 H 52.7659 M 54.42,56.41 V 38.0897" />
  <path
     id="path1076"
     style="fill:none;stroke:#000000;stroke-width:0.216;stroke-linecap:butt;stroke-linejoin:miter;stroke-dasharray:none"
     d="M 54.6839,37.8259 H 34.1511 v 20.5149 h 2.5526 m 2.0443,0 h 14.2817 m 1.6542,-1.6666 V 37.8259" />
  <path
     id="path1078"
     style="fill:none;stroke:#000000;stroke-width:0.216;stroke-linecap:butt;stroke-linejoin:miter;stroke-dasharray:none"
     d="M 54.9478,37.5623 H 33.8872 v 21.0421 h 2.55 m 2.0472,0 h 14.8091 m 1.6543,-1.6659 V 37.5623" />
  <path
     id="path1080"
     style="fill:none;stroke:#000000;stroke-width:0.216;stroke-linecap:butt;stroke-linejoin:miter;stroke-dasharray:none"
     d="M 55.2117,37.2985 H 33.6233 v 21.5697 h 2.5472 m 2.05,0 H 53.5572 M 55.2117,57.203 V 37.2985" />
  <path
     id="path1082"
     style="fill:none;stroke:#000000;stroke-width:0.216;stroke-linecap:butt;stroke-linejoin:miter;stroke-dasharray:none"
     d="M 55.4756,37.0349 H 33.3594 v 22.0969 h 2.5448 m 2.0527,0 h 15.864 m 1.6547,-1.6642 V 37.0349" />
  <path
     id="path1084"
     style="fill:none;stroke:#000000;stroke-width:0.216;stroke-linecap:butt;stroke-linejoin:miter;stroke-dasharray:none"
     d="M 55.7042,36.8064 H 33.1307 v 22.5539 h 2.5426 m 2.0551,0 h 16.3211 m 1.6547,-1.6635 V 36.8064" />
  <path
     id="path1086"
     style="fill:none;stroke:#000000;stroke-width:0.216;stroke-linecap:butt;stroke-linejoin:miter;stroke-dasharray:none"
     d="M 56.0101,36.5008 H 32.8249 v 23.1651 h 2.5398 m 2.058,0 H 54.355 m 1.6551,-1.6624 V 36.5008" />
  <path
     id="path1088"
     style="fill:none;stroke:#000000;stroke-width:0.216;stroke-linecap:butt;stroke-linejoin:miter;stroke-dasharray:none"
     d="M 56.3161,36.1953 H 32.5189 v 23.7761 h 2.5376 m 2.0606,0 h 17.5437 m 1.6553,-1.6609 V 36.1953" />
  <path
     id="path1090"
     style="fill:none;stroke:#000000;stroke-width:0.216;stroke-linecap:butt;stroke-linejoin:miter;stroke-dasharray:none"
     d="M 56.6219,35.8895 H 32.213 v 24.3877 h 2.5355 m 2.0627,0 h 18.1553 m 1.6554,-1.6597 v -22.728" />
  <path
     id="path1092"
     style="fill:none;stroke:#000000;stroke-width:0.216;stroke-linecap:butt;stroke-linejoin:miter;stroke-dasharray:none"
     d="M 56.9278,35.584 H 31.9072 v 24.9987 h 2.5343 m 2.0642,0 H 55.272 m 1.6558,-1.6582 V 35.584" />
  <path
     id="path1094"
     style="fill:none;stroke:#000000;stroke-width:0.216;stroke-linecap:butt;stroke-linejoin:miter;stroke-dasharray:none"
     d="M 57.2336,35.2783 H 31.6013 v 25.6102 h 2.534 m 2.0645,0 h 19.3781 m 1.6557,-1.6569 V 35.2783" />
  <path
     id="path1096"
     style="fill:none;stroke:#000000;stroke-width:0.216;stroke-linecap:butt;stroke-linejoin:miter;stroke-dasharray:none"
     d="M 57.6003,34.912 H 31.2346 v 26.3427 h 2.5368 m 2.0622,0 h 20.1105 m 1.6562,-1.6549 V 34.912" />
  <path
     id="path1098"
     style="fill:none;stroke:#000000;stroke-width:0.216;stroke-linecap:butt;stroke-linejoin:miter;stroke-dasharray:none"
     d="M 57.9481,34.5645 H 30.8868 v 27.0377 h 2.5419 m 2.0572,0 h 20.8059 m 1.6563,-1.653 V 34.5645" />
  <path
     id="path1100"
     style="fill:none;stroke:#000000;stroke-width:0.216;stroke-linecap:butt;stroke-linejoin:miter;stroke-dasharray:none"
     d="M 58.2961,34.217 H 30.5389 v 27.5216 m 4.5995,0.2112 h 21.5009 m 1.6568,-1.6511 V 34.217" />
  <path
     id="path1102"
     style="fill:none;stroke:#000000;stroke-width:0.216;stroke-linecap:butt;stroke-linejoin:miter;stroke-dasharray:none"
     d="M 58.6439,33.8693 H 30.1911 v 27.8693 m 4.5995,0.5588 h 22.1966 m 1.6567,-1.6492 V 33.8693" />
  <path
     id="path1104"
     style="fill:none;stroke:#000000;stroke-width:0.216;stroke-linecap:butt;stroke-linejoin:miter;stroke-dasharray:none"
     d="M 58.9917,33.5218 H 29.8433 v 28.2168 m 4.6002,0.9063 h 22.8912 m 1.657,-1.6472 V 33.5218" />
  <path
     id="path1106"
     style="fill:none;stroke:#000000;stroke-width:0.216;stroke-linecap:butt;stroke-linejoin:miter;stroke-dasharray:none"
     d="M 59.3395,33.1742 H 29.4954 v 28.5644 m 4.5701,1.2539 h 23.6169 m 1.6571,-1.6451 V 33.1742" />
</svg>
